<?xml version="1.0" encoding="utf-8"?>
<!-- Generator: Adobe Illustrator 19.1.0, SVG Export Plug-In . SVG Version: 6.00 Build 0)  -->
<!DOCTYPE svg PUBLIC "-//W3C//DTD SVG 1.1//EN" "http://www.w3.org/Graphics/SVG/1.1/DTD/svg11.dtd">
<svg version="1.1" id="Layer_1" xmlns="http://www.w3.org/2000/svg" xmlns:xlink="http://www.w3.org/1999/xlink" x="0px" y="0px"
	 viewBox="0 0 900 650" style="enable-background:new 0 0 900 650;" xml:space="preserve">
<rect x="1" y="1" style="fill:#BD4C64;" width="900" height="650"/>
<circle style="fill:#2F8E7C;" cx="451" cy="326" r="246"/>
<path style="fill:#E8E7E5;" d="M588.495,78.419c-18.212,8.285-23.384,13.296-22.881,15.641c0.804,3.755,10.554,0.023,21.182-4.379
	c-13.07,7.688-20.903,12.945-19.574,15.999c1.264,2.905,7.816,0.018,19.037-5.81c-10.253,8.485-15.909,15.82-14.658,18.413
	c1.006,2.085,6.592-0.568,13.732-3.23c-8.962,7.121-14.494,16.569-17.486,22.625c-12.031-5.025-22.278-2.822-22.882,0.178
	c-0.737,3.663,5.754,6.18,16.803,5.721c-12.888,3.126-20.051,9.078-18.055,12.603c2.026,3.578,11.102-0.406,20.379-6.257
	c-9.474,9.385-9.082,15.276-7.168,16.184c3.889,1.844,7.782-3.806,11.459-12.43c0.723,5.055,2.304,8.795,4.469,8.582
	c5.452-0.536,3.932-14.034-0.448-19.397c7.949-0.267,15.252-1.744,24.58-7.597c-7.139,8.713-11.405,16.393-9.028,18.769
	c2.373,2.373,7.772-1.653,16.357-10.099c-5.616,8.62-9.563,14.032-7.865,16.445c2.53,3.597,9.331-1.686,16.357-9.921
	c-3.307,6.346-5.095,17.877-1.252,18.769c3.355,0.781,6.483-6.979,10.637-18.055c-1.552,10.991-1.537,17.698,2.413,17.698
	c4.266,0,9.505-16.066,7.418-30.658c-8.724-5.488-13.46-9.186-19.038-15.552c5.9-1.877,11.452-6.736,11.083-14.3
	c5.608,0,12.56-2.21,16.446-7.33c-6.897,0.796-10.334,0.788-13.407-0.088c4.786-6.177,11.887-8.76,14.658-5.811
	c3.129-12.156-11.083-13.138-18.68-1.429c-9.835-8.51-25.252-2.565-32.322,13.956c0-9.165,7.878-18.939,16.234-21.554
	c3.031-9.679,2.583-23.21-1.861-23.926c-5.385-0.868-36.483,13.387-36.483,17.49C568.653,83.156,578.938,81.054,588.495,78.419z
	 M606.64,100.317c2.024-1.284,4.705-0.684,5.988,1.341c1.284,2.023,0.684,4.705-1.341,5.988c-2.023,1.284-4.705,0.684-5.988-1.34
	C604.015,104.282,604.615,101.599,606.64,100.317z M547.291,476.162c5.496-0.246,13.307-2.626,13.272-5.508
	c-0.023-2.078-4.026-1.803-13.474-2.648c-11.893-1.063-20.433-11.192-33.342-15.363c-19.265,10.526-34.956,26.812-51.253,48.931
	c1.839-47.14,6.868-90.185,17.466-142.353c0.842,0.42,1.714,0.79,2.622,1.1c14.094,4.799,30.561-6.116,36.782-24.38
	c6.22-18.265-0.163-36.963-14.257-41.762c-8.042-2.738-16.847-0.347-24.089,5.59c8.788-40.847,11.603-71.804,2.098-87.816
	c-5.164-8.701-18.688-16.073-36.27-20.657c-0.323,3.252-1.077,6.626-2.283,10.138c16.488,5.236,27.119,13.142,26.568,21.286
	c-0.862,12.733-28.712,21.217-62.203,18.949c-33.492-2.268-59.943-14.429-59.08-27.163c0.626-9.249,15.499-16.252,36.425-18.525
	c2.286-3.834,5.177-7.287,8.544-10.218c-20.605,0.688-39.934,4.929-51.85,13.677c-7.722,10.156-22.135,41.913-25.578,56.281
	c21.23,13.297,33.383,32.433,29.495,50.566c-5.758,26.859-38.763,44.292-87.176,33.212c-3.492-0.8-6.885-1.748-10.183-2.809
	c-6.265,22.267,4.198,47.29,39.098,43.12c23.336-2.787,41.253-11.757,56.131-26.635c-3.645,14.581-13.455,41.772-29.674,62.566
	c47.351,2.32,96.88-15.605,115.838-45.405c-2.92,39.706-32.637,94.895-75.438,84.017c-0.893,34.501,30.747,42.904,36.825,14.302
	c21.144,7.226,36.835,20.534,47.502,41.415c-47.39,36.934-128.467,56.716-156.189,16.681c-11.183,4.344-7.806,20.829,5.184,25.206
	c-17.757,0-46.348,9.799-45.763,16.089c0.715,7.686,21.651,1.181,40.4-3.219c-19.007,8.579-33.002,19.155-30.21,25.743
	c2.86,6.748,18.611-4.063,35.931-13.944c-16.044,17.741-21.446,29.718-16.267,31.283c6.659,2.011,17.553-14.514,30.121-27.082
	c-5.363,7.91-11.316,21.854-7.061,23.865c6.525,3.083,12.147-13.924,21.451-21.63c7.332-6.074,22.452-8.03,46.478-17.251
	c24.595-9.44,58.258-26.286,79.191-44.958l1.252,32.891c0,0-24.265-8.064-30.747-3.397c-6.087,4.382-4.112,15.196-0.179,35.217
	c-20.29-0.938-39.015-6.302-39.015-6.302c-1.65,25.715,36.285,36.241,50.634,11.307l0.715,13.228
	c7.236-0.598,11.788-1.827,17.34-5.542c-9.001-14.227-14.498-24.618-21.273-39.685c18.86,5.988,46.483-1.278,59.176-12.183
	c3.774,11.518,17.24,31.523,27.806,29.989c12.313-1.787,13.703-22.244,11.314-36.229c12.697-1.195,19.25-0.802,34.881,1.082
	c7.15-21.898-22.614-27.44-38.434-8.938l0.716-11.44c-3.827-0.575-12.7,2.044-15.732,4.647c3.129,7.954,7.035,31.507,3.039,32.355
	c-4.92,1.045-25.179-30.137-30.21-51.483c12.381-16.788,23.503-24.93,42.009-34.143c15.374,12.513,11.531,27.976-0.714,29.674
	c6.078,10.637,20.211,7.664,19.127-9.296c4.396,8.754,19.217,20.413,23.775,17.698c2.367-1.411-0.844-6.694-11.977-16.625
	c10.08,5.152,20.797,9.211,22.34,5.591c1.32-3.096-9.089-10.385-19.122-15.066c10.572,2.042,19.182,2.872,20.378-0.536
	C571.32,480.397,563.338,478.249,547.291,476.162z M500.723,308.394c6.741,1.517,10.704,10.047,9.733,19.907
	c-1.686-3.987-4.498-6.845-8.123-7.661c-8.502-1.914-17.723,8.133-19.028,21.387C478.394,326.525,488.323,305.603,500.723,308.394z
	 M395.523,333.746c-7.732,0-14-6.268-14-14c0-7.732,6.268-13.999,14-13.999c7.731,0,13.999,6.267,13.999,13.999
	C409.522,327.478,403.254,333.746,395.523,333.746z M439.02,307.033c-4.775-8.105-12.712-15.18-23.01-18.953
	c-12.621-4.623-28.74-3.698-39.001,3.201c6.451-30.892,30.007-40.058,26.201-14.973c11.432-15.522,24.848-13.061,19.664,7.319
	C436.532,269.966,445.823,281.441,439.02,307.033z M427.999,175.151c-9.927-7.03-22.22-6.727-34.086-1.766
	c5.518,5.518,12.873,8.714,18.502,8.714c-9.256,2.244-17.519,7.887-22.122,17.697c9.642,0.67,18.424-1.924,24.121-5.959
	c-5.113,5.113-8.131,11.969-8.502,19.769c10.144-2.559,19.616-10.218,24.334-22.322c-1.091,7.469-0.417,14.7,2.949,21.384
	c8.253-10.892,10.376-23.201,7.064-33.176c11.484-3.249,20.43-6.964,33.203-14.195c-7.163,7.46-12.513,13.786-9.296,16.088
	c2.938,2.101,10.465-2.743,18.591-9.475c-5.24,7.438-8.469,13.54-5.363,15.016c4.688,2.225,12.927-5.579,20.201-12.513
	c-4.277,7.291-8.014,16.96-5.185,17.519c4.871,0.961,17.054-9.302,23.805-23.71c0,11.184-6.238,28.23-1.102,28.535
	c8.245,0.492,19.742-31.66,18.769-49.696c-11.361,3.411-23.168,4.164-39.989,3.008c12.446-1.498,24.538-11.574,23.454-26.337
	c11.563,0.958,21.337-3.577,24.133-15.463c-7.062,4.379-12.349,5.996-16.536,5.452c2.456-11.904,9.996-21.374,18.145-21.898
	c-5.005-8.849-20.916-4.916-26.725,12.603c-11.795-10.322-33.502-1.4-42.066,21.193c-8.365-10.2-0.807-29.445-7.452-32.188
	c-9.159-3.78-59.856,6.521-58.633,14.48c0.689,4.486,16.013,3.684,36.467,0.894c-18.044,6.01-33.142,12.49-31.689,16.934
	c1.117,3.419,13.745,0.966,30.438-1.024c-13.548,7.013-25.854,13.608-23.775,17.339c1.729,3.105,11.999,0.894,24.402-4.133
	c-8.149,5.309-15.606,11.564-14.699,14.378c1.007,3.123,13.07-1.745,22.57-6.347C438.512,155.056,433.186,165.4,427.999,175.151z
	 M502.015,110.021c2.945,0,5.332,2.387,5.332,5.331c0,2.944-2.387,5.332-5.332,5.332c-2.945,0-5.332-2.388-5.332-5.332
	C496.683,112.407,499.07,110.021,502.015,110.021z M649.572,188.948c-2.369-7.61-15.211-7.234-22.567,5.225
	c-7.327-9.864-25.439-6.628-35.748,9.265c-4.718-9.202,4.263-22.696-0.372-25.899c-6.393-4.415-46.946-4.927-47.327,1.374
	c-0.217,3.55,11.658,5.478,27.793,6.731c-14.823,1.613-27.466,4.075-27.09,7.721c0.29,2.805,10.373,3.02,23.494,4.262
	c-11.545,3.129-22.068,6.141-21.094,9.345c0.811,2.666,9.047,2.675,19.383,0.879c-7.125,2.715-13.876,6.273-13.645,8.578
	c0.251,2.562,10.302,0.832,18.345-1.119c-11.789,4.75-17.585,11.792-23.176,18.404c-6.441-7.033-15.91-8.839-25.826-7.005
	c3.314,5.142,8.42,8.813,12.733,9.746c-7.465,0.185-14.733,3.138-19.885,9.892c7.276,2.11,14.436,1.581,19.469-0.567
	c-4.765,3.071-8.214,7.822-9.791,13.738c8.196-0.279,16.724-4.577,22.347-13.069c-2.074,5.542-2.757,11.195-1.286,16.873
	c8.13-6.977,11.797-16.057,10.913-24.25c9.339-0.585,16.81-1.947,27.796-5.372c-6.726,4.53-11.875,8.489-9.791,10.786
	c1.903,2.098,8.474-0.366,15.816-4.178c-5.249,4.831-8.734,8.973-6.6,10.617c3.224,2.483,10.83-2.131,17.553-6.238
	c-4.484,4.877-8.952,11.666-6.877,12.563c3.572,1.545,14.61-4.299,22.172-14.22c-1.854,8.569-9.461,20.596-5.576,21.683
	c6.237,1.744,20.377-20.986,22.622-34.967c-9.271,0.73-18.443-0.65-31.141-4.325c9.786,0.916,20.721-4.799,22.339-16.292
	c8.701,2.652,16.941,0.799,21.055-7.845c-6.137,2.185-10.457,2.546-13.575,1.436C635.894,194.005,643.24,187.998,649.572,188.948z
	 M618.284,201.049c-0.489,2.257-2.713,3.69-4.969,3.202c-2.257-0.489-3.69-2.714-3.202-4.969c0.488-2.257,2.713-3.69,4.969-3.202
	C617.339,196.568,618.77,198.793,618.284,201.049z M499.384,71.926c-2.8,2.294-4.643,5.559-5.214,9.428
	c5.181-0.772,10.279-4.118,13.229-9.914c-0.912,3.665-0.936,7.302,0.41,10.798c4.65-5.018,6.32-11.044,5.162-16.18
	c5.884-1.049,10.525-2.456,17.247-5.425c-3.939,3.362-6.918,6.248-5.428,7.554c1.36,1.194,5.349-0.847,9.732-3.799
	c-2.979,3.446-4.889,6.328-3.416,7.216c2.225,1.342,6.716-2.139,10.684-5.233c-2.492,3.42-4.833,8.053-3.451,8.47
	c2.38,0.721,8.958-3.788,13.034-10.633c-0.553,5.573-4.507,13.756-1.962,14.163c4.084,0.652,11.404-14.796,11.814-23.83
	c-5.83,1.137-11.749,0.929-20.073-0.482c6.275-0.13,12.798-4.551,12.99-11.959c5.713,1.052,10.807-0.724,12.79-6.506
	c-3.735,1.831-6.451,2.374-8.509,1.896c1.813-5.81,6.038-10.153,10.124-10.011c-2.055-4.657-10.177-3.485-13.938,4.954
	c-5.365-5.727-16.622-2.358-22.009,8.474c-3.662-5.495,1.057-14.709-2.117-16.405c-4.377-2.337-30.143,0.283-29.927,4.309
	c0.119,2.268,7.794,2.63,18.123,2.253c-9.288,2.099-17.13,4.581-16.627,6.867c0.387,1.758,6.8,1.161,15.215,0.996
	c-7.098,2.825-13.554,5.5-12.704,7.461c0.709,1.633,5.935,1.041,12.361-0.85c-4.323,2.242-8.348,4.989-8.035,6.434
	c0.346,1.607,6.597-0.221,11.559-2.044c-7.135,3.871-10.301,8.76-13.369,13.361c-4.596-3.994-10.736-4.451-16.894-2.569
	c2.476,3.022,5.982,4.98,8.788,5.26c-4.723,0.659-9.121,3.061-11.898,7.721C491.844,74.511,496.346,73.654,499.384,71.926z
	 M547.182,34.509c1.468,0.146,2.537,1.454,2.392,2.92c-0.146,1.466-1.452,2.539-2.92,2.392s-2.539-1.454-2.393-2.921
	C544.407,35.435,545.714,34.363,547.182,34.509z"/>
</svg>
