<?xml version="1.0" encoding="utf-8"?>
<!-- Generator: Adobe Illustrator 19.1.0, SVG Export Plug-In . SVG Version: 6.00 Build 0)  -->
<!DOCTYPE svg PUBLIC "-//W3C//DTD SVG 1.1//EN" "http://www.w3.org/Graphics/SVG/1.1/DTD/svg11.dtd">
<svg version="1.1" id="Layer_1" xmlns="http://www.w3.org/2000/svg" xmlns:xlink="http://www.w3.org/1999/xlink" x="0px" y="0px"
	 viewBox="0 0 900 650" style="enable-background:new 0 0 900 650;" xml:space="preserve">
<path style="fill:none;" d="M353.279,97.55l-0.237,1.308c0.524-0.225,1.045-0.455,1.57-0.676L353.279,97.55z"/>
<polygon style="fill:none;" points="349.003,64.09 326.262,74.45 345.541,84.119 "/>
<path style="fill:none;" d="M356.916,77.453l-2.053,11.34l10.374,5.202c0.404-0.148,0.813-0.288,1.218-0.434L356.916,77.453z"/>
<path style="fill:none;" d="M205.307,486.143c-1.931-14.548,1.498-28.567,8.75-40.089c-15.551,12.323-24.454,32.231-21.657,53.326
	c4.231,31.904,33.523,54.333,65.426,50.103c13.472-1.787,25.222-8.076,34.022-17.113c-5.746,2.829-12.015,4.828-18.714,5.717
	C240.059,542.474,209.693,519.219,205.307,486.143z"/>
<circle style="fill:none;" cx="246.506" cy="-105.371" r="8.093"/>
<path style="fill:none;" d="M688.291,262.557l-0.297-0.005c0.094,0.36,0.196,0.716,0.288,1.076L688.291,262.557z"/>
<path style="fill:none;" d="M246.506-85.138c-4.353,0-8.374-1.388-11.674-3.727c-18.055,40.117-29.09,115.204-29.691,203.397
	c-0.33,48.447,2.543,97.137,8.218,143.032c17.096-60.108,56.479-110.83,108.644-142.676l-74.027-200.1
	C247.488-85.177,247.002-85.138,246.506-85.138z"/>
<path style="fill:#CCB2A3;" d="M330.178,0l56.932,87.127c-7.012,1.849-13.902,3.997-20.654,6.435l-9.539-16.108l-2.053,11.34
	l10.374,5.202c-3.582,1.315-7.124,2.712-10.625,4.187l-1.334-0.632l-0.237,1.308c-3.685,1.582-7.324,3.252-10.913,5.006
	l1.852-10.717l-12.545-5.941l7.417,18.286c-5.75,2.917-11.371,6.05-16.85,9.395L279.5,0H212.71
	c-4.635,33.653-7.283,72.606-7.569,114.532c-0.33,48.447,2.543,97.137,8.218,143.032c-1.46,5.134-2.742,10.342-3.871,15.608
	c-6.999-50.441-10.586-104.72-10.219-158.679c0.285-41.795,2.92-80.716,7.537-114.492H0v650h900V0H330.178z"/>
<path style="fill:none;" d="M687.219,390.309c-3.175,11.56-7.173,22.777-11.926,33.589l11.642,0.222L687.219,390.309z"/>
<path style="fill:none;" d="M663.47,449.843h-1.478c-3.062,5.188-6.308,10.253-9.731,15.188l12.109,0.155L663.47,449.843z"/>
<path style="fill:none;" d="M343.981,93.147l-12.545-5.941l7.417,18.286c1.087-0.551,2.18-1.092,3.276-1.628L343.981,93.147z"/>
<polygon style="fill:#407289;" points="417.651,180.01 412.521,202.684 436.995,212.674 "/>
<polygon style="fill:#407289;" points="393.8,240.963 399.987,209.599 377.78,201.469 "/>
<polygon style="fill:#407289;" points="454.242,241.797 447.982,273.902 480.024,285.329 "/>
<polygon style="fill:#407289;" points="427.837,324.883 435.393,281.158 406.289,271.759 "/>
<polygon style="fill:#407289;" points="364.468,168.647 367.889,148.849 354.25,143.453 "/>
<path style="fill:#407289;" d="M366.456,93.561c-0.405,0.146-0.814,0.286-1.218,0.434l2.098,1.052L366.456,93.561z"/>
<path style="fill:#407289;" d="M630.075,449.843l-0.904,14.892l23.09,0.296c3.423-4.935,6.669-10,9.731-15.188H630.075z"/>
<polygon style="fill:#407289;" points="400.255,256.881 437.305,270.094 444.916,226.048 410.116,213.307 400.255,256.88 "/>
<path style="fill:#407289;" d="M599.976,331.852c-3.574,0-6.47,2.896-6.47,6.47c0,3.576,2.896,6.472,6.47,6.472
	c3.576,0,6.472-2.896,6.472-6.472C606.448,334.748,603.552,331.852,599.976,331.852z"/>
<path style="fill:#407289;" d="M342.129,103.865c-1.096,0.536-2.189,1.076-3.276,1.628l2.1,5.177L342.129,103.865z"/>
<path style="fill:#407289;" d="M369.86,137.444l5.102-29.521l-0.087-0.145l-20.262-9.596c-0.526,0.221-1.047,0.451-1.57,0.676
	l-5.209,28.775L369.86,137.444z"/>
<polygon style="fill:#407289;" points="383.788,122.828 380.053,141.983 400.534,151.106 "/>
<path style="fill:#407289;" d="M221.354,393.271c-0.926-6.988,2.924-13.502,9.029-16.27c-8.692-31.386-15.723-66.562-20.895-103.83
	C205.904,289.883,204,307.218,204,325c0,28.197,4.758,55.28,13.491,80.506c1.628-0.413,3.417-0.822,5.325-1.221L221.354,393.271z"/>
<path style="fill:#407289;" d="M238.292,383.347c0.331,1.132,0.656,2.277,0.991,3.397c0.464,1.554-0.419,3.19-1.972,3.655
	c-0.281,0.082-0.564,0.122-0.842,0.122c-1.264,0-2.431-0.822-2.812-2.095c-0.39-1.306-0.77-2.634-1.154-3.955
	c-2.538,1.634-4.063,4.616-3.639,7.806l1.404,10.601c5.181-0.877,10.714-1.636,15.939-2.171l-1.398-10.544
	C244.339,386.623,241.623,383.964,238.292,383.347z"/>
<path style="fill:#407289;" d="M688.282,263.629c-0.093-0.36-0.194-0.717-0.288-1.076L547.487,260.3l-73.111,159.758l32.762,0.627
	l17.553-32.237c-1.804-1.867-2.926-4.4-2.926-7.202c0-5.732,4.647-10.379,10.379-10.379s10.379,4.647,10.379,10.379
	c0,5.733-4.647,10.379-10.379,10.379c-0.308,0-0.596-0.065-0.896-0.09l-9.901,29.421l153.947,2.941
	c4.753-10.812,8.751-22.029,11.926-33.589L688.282,263.629z M648.444,345.594c6.795,0,10.675,4.698,10.675,10.494
	c0,5.796-3.88,10.496-10.675,10.496c-4.209,0-7.921-1.806-10.14-4.557c-1.734,19.445-4.436,40.896-7.386,55.149l-35.561-0.679
	c-1.434-9.913-5.297-26.56-8.173-33.172c16.614-4.419,29.87-19.619,29.87-33.227c-4.173,7.135-18.736,14.844-35.88,15.727
	l1.77-16.083c-4.7,0.918-16.863,0.673-21.563-0.353c4.87-5.113,15.596-19.342,19.831-26.717c-12.203-1.086-22.104-2.15-27.08-2.974
	l0.529-5.836l19.441-8.837c0,0,3.039-20.435,16.792-29.87c15.2-10.425,41.022-8.099,54.085,1.77
	c15.905,12.017,12.017,38.881,12.017,38.881l5.304,1.592l-1.239,10.251c-6.191-0.162-13.271-0.455-20.785-0.839
	c0.008,5.734-0.333,13.499-0.94,22.236C641.59,346.932,644.83,345.594,648.444,345.594z"/>
<polygon style="fill:#407289;" points="402.184,198.466 408.78,165.028 377.938,152.825 371.48,185.935 "/>
<circle style="fill:#E8E7E5;" cx="248.207" cy="491.333" r="66.035"/>
<path style="fill:#407289;" d="M381.798,550.25l170.796-1.614c4.105-1.886,8.147-3.886,12.126-5.988l-153.119,1.447l-2.663-108.693
	l115.984-186.382l-18.956-10.833v-11.281l171.803,5.037C641.074,142.221,552.927,79,450,79c-21.739,0-42.814,2.833-62.89,8.127
	l118.648,181.575l-18.232,29.297l-41.622-13.443l-11.178,57.313l10.062,24.809l-18.585,29.868l-104.2-281.658
	c-52.165,31.846-91.547,82.568-108.644,142.676c5.265,42.58,12.942,82.754,22.737,118.071c8.027-0.39,15.145,5.421,16.22,13.531
	l1.451,10.928c4.085-0.241,7.704-0.281,10.368-0.031l0.776,19.501c29.895,6.107,54.026,30.52,58.262,62.47
	c2.279,17.176-1.573,33.742-9.844,47.526c17.184,11.504,35.899,20.893,55.773,27.811
	C371.839,552.992,376.621,550.298,381.798,550.25z"/>
<path style="fill:#12272F;" d="M218.491,405.506c-1.791,0.454-3.386,0.912-4.704,1.365l4.333,19.031
	c-27.268,13.688-44.201,43.549-39.965,75.501c5.347,40.32,42.371,68.671,82.692,63.325c23.147-3.07,42.334-16.589,53.481-35.168
	C270.202,500.019,236.174,456.581,218.491,405.506z M258.826,549.483c-31.903,4.23-61.195-18.199-65.426-50.103
	c-2.797-21.095,6.106-41.003,21.657-53.326c-7.252,11.522-10.68,25.541-8.75,40.089c4.386,33.076,34.752,56.331,67.827,51.944
	c6.699-0.889,12.968-2.888,18.714-5.717C284.048,541.407,272.298,547.696,258.826,549.483z"/>
<circle style="fill:none;" cx="246.506" cy="-105.371" r="8.093"/>
<path style="fill:none;" d="M246.506-85.138c-4.353,0-8.374-1.388-11.674-3.727C225.36-67.82,217.824-37.138,212.71,0H279.5
	l-31.525-85.213C247.488-85.177,247.002-85.138,246.506-85.138z"/>
<polygon style="fill:#CCB2A3;" points="349.003,64.09 326.262,74.45 345.541,84.119 "/>
<path style="fill:#12272F;" d="M209.488,273.171c1.129-5.265,2.411-10.473,3.871-15.608c-5.675-45.895-8.548-94.585-8.218-143.032
	C205.427,72.606,208.075,33.653,212.71,0h-5.903c-4.617,33.776-7.252,72.697-7.537,114.492
	C198.902,168.451,202.489,222.73,209.488,273.171z"/>
<path style="fill:#F0C84A;" d="M322.003,114.887c5.479-3.345,11.1-6.477,16.85-9.395l-7.417-18.286l12.545,5.941l-1.852,10.717
	c3.59-1.754,7.228-3.424,10.913-5.006l0.237-1.308l1.334,0.632c3.502-1.474,7.043-2.872,10.625-4.187l-10.374-5.202l2.053-11.34
	l9.539,16.108c6.752-2.438,13.642-4.586,20.654-6.435L330.178,0H279.5L322.003,114.887z M349.003,64.09l-3.462,20.028l-19.279-9.668
	L349.003,64.09z"/>
<path style="fill:#F0C84A;" d="M505.966,238.186l18.956,10.833L408.939,435.402l2.663,108.693l153.119-1.447
	c35.048-18.512,65.08-45.236,87.541-77.617l-23.09-0.296l0.904-14.892h31.917c4.925-8.345,9.371-17.005,13.301-25.945
	l-153.947-2.941l9.901-29.421c0.3,0.025,0.589,0.09,0.896,0.09c5.732,0,10.379-4.647,10.379-10.379
	c0-5.732-4.647-10.379-10.379-10.379s-10.379,4.647-10.379,10.379c0,2.802,1.122,5.335,2.926,7.202l-17.553,32.237l-32.762-0.627
	L547.487,260.3l140.506,2.252c-2.746-10.495-6.175-20.712-10.224-30.611l-171.803-5.037V238.186z"/>
<path style="fill:#F0C84A;" d="M696,325c0-21.19-2.68-41.753-7.718-61.371l-1.063,126.68C692.933,369.509,696,347.614,696,325z"/>
<path style="fill:#F0C84A;" d="M552.594,548.636l-170.796,1.614c-5.177,0.049-9.959,2.742-12.696,7.121
	C394.44,566.191,421.656,571,450,571C486.62,571,521.365,562.986,552.594,548.636z"/>
<path style="fill:#12272F;" d="M323.172,482.033c-4.237-31.95-28.367-56.363-58.262-62.47l-0.776-19.501
	c-2.664-0.25-6.283-0.21-10.368,0.031l-1.451-10.928c-1.074-8.11-8.193-13.921-16.22-13.531
	c-9.795-35.317-17.471-75.491-22.737-118.071c-1.46,5.134-2.742,10.342-3.871,15.608c5.171,37.268,12.202,72.444,20.895,103.83
	c-6.104,2.768-9.955,9.282-9.029,16.27l1.462,11.014c-1.908,0.399-3.697,0.808-5.325,1.221
	c17.682,51.075,51.711,94.513,95.837,124.053C321.599,515.775,325.451,499.209,323.172,482.033z M230.268,402.878l-1.404-10.601
	c-0.423-3.19,1.101-6.172,3.639-7.806c0.384,1.321,0.765,2.649,1.154,3.955c0.38,1.273,1.547,2.095,2.812,2.095
	c0.278,0,0.561-0.04,0.842-0.122c1.553-0.464,2.436-2.101,1.972-3.655c-0.335-1.12-0.66-2.265-0.991-3.397
	c3.331,0.617,6.047,3.276,6.516,6.816l1.398,10.544C240.982,401.242,235.449,402.001,230.268,402.878z"/>
<path style="fill:#E8E7E5;" d="M661.064,327.651l1.239-10.251l-5.304-1.592c0,0,3.888-26.864-12.017-38.881
	c-13.063-9.869-38.885-12.195-54.085-1.77c-13.753,9.435-16.792,29.87-16.792,29.87l-19.441,8.837l-0.529,5.836
	c4.976,0.824,14.877,1.889,27.08,2.974c-4.236,7.374-14.961,21.603-19.831,26.717c4.7,1.026,16.863,1.271,21.563,0.353l-1.77,16.083
	c17.144-0.883,31.707-8.592,35.88-15.727c0,13.608-13.256,28.807-29.87,33.227c2.877,6.612,6.74,23.259,8.173,33.172l35.561,0.679
	c2.949-14.254,5.652-35.704,7.386-55.149c2.219,2.751,5.931,4.557,10.14,4.557c6.795,0,10.675-4.7,10.675-10.496
	c0-5.795-3.88-10.494-10.675-10.494c-3.615,0-6.855,1.338-9.106,3.454c0.608-8.737,0.948-16.502,0.94-22.236
	C647.793,327.196,654.873,327.488,661.064,327.651z M599.976,344.795c-3.574,0-6.47-2.896-6.47-6.472c0-3.574,2.896-6.47,6.47-6.47
	c3.576,0,6.472,2.896,6.472,6.47C606.448,341.899,603.552,344.795,599.976,344.795z"/>
<path style="fill:#F0C84A;" d="M367.336,95.047l-2.098-1.052c-3.582,1.315-7.124,2.712-10.625,4.187l20.262,9.596l0.087,0.145
	l-5.102,29.521l-22.027-9.81l5.209-28.775c-3.685,1.582-7.324,3.252-10.913,5.006l-1.176,6.805l-2.1-5.177
	c-5.75,2.917-11.371,6.05-16.85,9.395l104.2,281.658l18.585-29.868l-10.062-24.809l11.178-57.313l41.622,13.443l18.232-29.297
	L387.11,87.127c-7.012,1.849-13.902,3.997-20.654,6.435L367.336,95.047z M364.468,168.647l-10.218-25.194l13.639,5.396
	L364.468,168.647z M454.242,241.797l25.782,43.532l-32.042-11.427L454.242,241.797z M393.8,240.963l-16.02-39.494l22.207,8.13
	L393.8,240.963z M427.837,324.883l-21.548-53.124l29.104,9.4L427.837,324.883z M417.651,180.01l19.344,32.664l-24.474-9.989
	L417.651,180.01z M444.916,226.048l-7.612,44.046l-37.05-13.213v-0.001l9.861-43.573L444.916,226.048z M383.788,122.828
	l16.746,28.278l-20.481-9.122L383.788,122.828z M408.78,165.028l-6.597,33.438l-30.704-12.53l6.458-33.11L408.78,165.028z"/>
<image style="overflow:visible;" width="900" height="650" xlink:href="submarine.png"  transform="matrix(1 0 0 1 752.6166 318.1853)">
</image>
</svg>
