<?xml version="1.0" encoding="utf-8"?>
<!-- Generator: Adobe Illustrator 19.1.0, SVG Export Plug-In . SVG Version: 6.00 Build 0)  -->
<!DOCTYPE svg PUBLIC "-//W3C//DTD SVG 1.1//EN" "http://www.w3.org/Graphics/SVG/1.1/DTD/svg11.dtd">
<svg version="1.1" id="Layer_1" xmlns="http://www.w3.org/2000/svg" xmlns:xlink="http://www.w3.org/1999/xlink" x="0px" y="0px"
	 viewBox="144 72 900 650" style="enable-background:new 144 72 900 650;" xml:space="preserve">
<style type="text/css">
	.st0{fill:none;}
	.st1{fill:#BFB3E8;}
	.st2{fill:#407289;}
	.st3{fill:#E8E7E5;}
	.st4{fill:#12272F;}
	.st5{fill:#CCB2A3;}
	.st6{fill:#F0C84A;}
</style>
<path class="st0" d="M497.3,169.6l-0.2,1.3c0.5-0.2,1-0.5,1.6-0.7L497.3,169.6z"/>
<polygon class="st0" points="493,136.1 470.3,146.4 489.5,156.1 "/>
<path class="st0" d="M500.9,149.5l-2.1,11.3l10.4,5.2c0.4-0.1,0.8-0.3,1.2-0.4L500.9,149.5z"/>
<path class="st0" d="M349.3,558.1c-1.9-14.5,1.5-28.6,8.8-40.1c-15.6,12.3-24.5,32.2-21.7,53.3c4.2,31.9,33.5,54.3,65.4,50.1
	c13.5-1.8,25.2-8.1,34-17.1c-5.7,2.8-12,4.8-18.7,5.7C384.1,614.5,353.7,591.2,349.3,558.1z"/>
<circle class="st0" cx="390.5" cy="-33.4" r="8.1"/>
<path class="st0" d="M832.3,334.6l-0.3,0c0.1,0.4,0.2,0.7,0.3,1.1L832.3,334.6z"/>
<path class="st0" d="M390.5-13.1c-4.4,0-8.4-1.4-11.7-3.7c-18.1,40.1-29.1,115.2-29.7,203.4c-0.3,48.4,2.5,97.1,8.2,143
	c17.1-60.1,56.5-110.8,108.6-142.7L392-13.2C391.5-13.2,391-13.1,390.5-13.1z"/>
<path class="st1" d="M474.2,72l56.9,87.1c-7,1.8-13.9,4-20.7,6.4l-9.5-16.1l-2.1,11.3l10.4,5.2c-3.6,1.3-7.1,2.7-10.6,4.2l-1.3-0.6
	l-0.2,1.3c-3.7,1.6-7.3,3.3-10.9,5l1.9-10.7l-12.5-5.9l7.4,18.3c-5.8,2.9-11.4,6.1-16.9,9.4L423.5,72h-66.8
	c-4.6,33.7-7.3,72.6-7.6,114.5c-0.3,48.4,2.5,97.1,8.2,143c-1.5,5.1-2.7,10.3-3.9,15.6c-7-50.4-10.6-104.7-10.2-158.7
	c0.3-41.8,2.9-80.7,7.5-114.5H144v650h900V72H474.2z"/>
<path class="st0" d="M831.2,462.3c-3.2,11.6-7.2,22.8-11.9,33.6l11.6,0.2L831.2,462.3z"/>
<path class="st0" d="M807.5,521.8H806c-3.1,5.2-6.3,10.3-9.7,15.2l12.1,0.2L807.5,521.8z"/>
<path class="st0" d="M488,165.1l-12.5-5.9l7.4,18.3c1.1-0.6,2.2-1.1,3.3-1.6L488,165.1z"/>
<polygon class="st2" points="561.7,252 556.5,274.7 581,284.7 "/>
<polygon class="st2" points="537.8,313 544,281.6 521.8,273.5 "/>
<polygon class="st2" points="598.2,313.8 592,345.9 624,357.3 "/>
<polygon class="st2" points="571.8,396.9 579.4,353.2 550.3,343.8 "/>
<polygon class="st2" points="508.5,240.6 511.9,220.8 498.2,215.5 "/>
<path class="st2" d="M510.5,165.6c-0.4,0.1-0.8,0.3-1.2,0.4l2.1,1.1L510.5,165.6z"/>
<path class="st2" d="M774.1,521.8l-0.9,14.9l23.1,0.3c3.4-4.9,6.7-10,9.7-15.2H774.1z"/>
<polygon class="st2" points="544.3,328.9 581.3,342.1 588.9,298 554.1,285.3 544.3,328.9 "/>
<path class="st2" d="M744,403.9c-3.6,0-6.5,2.9-6.5,6.5c0,3.6,2.9,6.5,6.5,6.5c3.6,0,6.5-2.9,6.5-6.5
	C750.4,406.7,747.6,403.9,744,403.9z"/>
<path class="st2" d="M486.1,175.9c-1.1,0.5-2.2,1.1-3.3,1.6l2.1,5.2L486.1,175.9z"/>
<path class="st2" d="M513.9,209.4l5.1-29.5l-0.1-0.1l-20.3-9.6c-0.5,0.2-1,0.5-1.6,0.7l-5.2,28.8L513.9,209.4z"/>
<polygon class="st2" points="527.8,194.8 524.1,214 544.5,223.1 "/>
<path class="st2" d="M365.4,465.3c-0.9-7,2.9-13.5,9-16.3c-8.7-31.4-15.7-66.6-20.9-103.8c-3.6,16.7-5.5,34-5.5,51.8
	c0,28.2,4.8,55.3,13.5,80.5c1.6-0.4,3.4-0.8,5.3-1.2L365.4,465.3z"/>
<path class="st2" d="M382.3,455.3c0.3,1.1,0.7,2.3,1,3.4c0.5,1.6-0.4,3.2-2,3.7c-0.3,0.1-0.6,0.1-0.8,0.1c-1.3,0-2.4-0.8-2.8-2.1
	c-0.4-1.3-0.8-2.6-1.2-4c-2.5,1.6-4.1,4.6-3.6,7.8l1.4,10.6c5.2-0.9,10.7-1.6,15.9-2.2l-1.4-10.5C388.3,458.6,385.6,456,382.3,455.3
	z"/>
<path class="st2" d="M832.3,335.6c-0.1-0.4-0.2-0.7-0.3-1.1l-140.5-2.3l-73.1,159.8l32.8,0.6l17.6-32.2c-1.8-1.9-2.9-4.4-2.9-7.2
	c0-5.7,4.6-10.4,10.4-10.4s10.4,4.6,10.4,10.4c0,5.7-4.6,10.4-10.4,10.4c-0.3,0-0.6-0.1-0.9-0.1l-9.9,29.4l153.9,2.9
	c4.8-10.8,8.8-22,11.9-33.6L832.3,335.6z M792.4,417.6c6.8,0,10.7,4.7,10.7,10.5s-3.9,10.5-10.7,10.5c-4.2,0-7.9-1.8-10.1-4.6
	c-1.7,19.4-4.4,40.9-7.4,55.1l-35.6-0.7c-1.4-9.9-5.3-26.6-8.2-33.2c16.6-4.4,29.9-19.6,29.9-33.2c-4.2,7.1-18.7,14.8-35.9,15.7
	l1.8-16.1c-4.7,0.9-16.9,0.7-21.6-0.4c4.9-5.1,15.6-19.3,19.8-26.7c-12.2-1.1-22.1-2.1-27.1-3l0.5-5.8l19.4-8.8
	c0,0,3-20.4,16.8-29.9c15.2-10.4,41-8.1,54.1,1.8c15.9,12,12,38.9,12,38.9l5.3,1.6l-1.2,10.3c-6.2-0.2-13.3-0.5-20.8-0.8
	c0,5.7-0.3,13.5-0.9,22.2C785.6,418.9,788.8,417.6,792.4,417.6z"/>
<polygon class="st2" points="546.2,270.5 552.8,237 521.9,224.8 515.5,257.9 "/>
<circle class="st3" cx="392.2" cy="563.3" r="66"/>
<path class="st2" d="M525.8,622.2l170.8-1.6c4.1-1.9,8.1-3.9,12.1-6l-153.1,1.4l-2.7-108.7l116-186.4l-19-10.8v-11.3l171.8,5
	C785.1,214.2,696.9,151,594,151c-21.7,0-42.8,2.8-62.9,8.1l118.6,181.6L631.5,370l-41.6-13.4l-11.2,57.3l10.1,24.8l-18.6,29.9
	L466,186.9c-52.2,31.8-91.5,82.6-108.6,142.7c5.3,42.6,12.9,82.8,22.7,118.1c8-0.4,15.1,5.4,16.2,13.5l1.5,10.9
	c4.1-0.2,7.7-0.3,10.4,0l0.8,19.5c29.9,6.1,54,30.5,58.3,62.5c2.3,17.2-1.6,33.7-9.8,47.5c17.2,11.5,35.9,20.9,55.8,27.8
	C515.8,625,520.6,622.3,525.8,622.2z"/>
<path class="st4" d="M362.5,477.5c-1.8,0.5-3.4,0.9-4.7,1.4l4.3,19c-27.3,13.7-44.2,43.5-40,75.5c5.3,40.3,42.4,68.7,82.7,63.3
	c23.1-3.1,42.3-16.6,53.5-35.2C414.2,572,380.2,528.6,362.5,477.5z M402.8,621.5c-31.9,4.2-61.2-18.2-65.4-50.1
	c-2.8-21.1,6.1-41,21.7-53.3c-7.3,11.5-10.7,25.5-8.8,40.1c4.4,33.1,34.8,56.3,67.8,51.9c6.7-0.9,13-2.9,18.7-5.7
	C428,613.4,416.3,619.7,402.8,621.5z"/>
<circle class="st0" cx="390.5" cy="-33.4" r="8.1"/>
<path class="st0" d="M390.5-13.1c-4.4,0-8.4-1.4-11.7-3.7c-9.5,21-17,51.7-22.1,88.9h66.8L392-13.2C391.5-13.2,391-13.1,390.5-13.1z
	"/>
<polygon class="st5" points="493,136.1 470.3,146.4 489.5,156.1 "/>
<path class="st4" d="M353.5,345.2c1.1-5.3,2.4-10.5,3.9-15.6c-5.7-45.9-8.5-94.6-8.2-143c0.3-41.9,2.9-80.9,7.6-114.5h-5.9
	c-4.6,33.8-7.3,72.7-7.5,114.5C342.9,240.5,346.5,294.7,353.5,345.2z"/>
<path class="st6" d="M650,310.2l19,10.8l-116,186.4l2.7,108.7l153.1-1.4c35-18.5,65.1-45.2,87.5-77.6l-23.1-0.3l0.9-14.9H806
	c4.9-8.3,9.4-17,13.3-25.9L665.3,493l9.9-29.4c0.3,0,0.6,0.1,0.9,0.1c5.7,0,10.4-4.6,10.4-10.4s-4.6-10.4-10.4-10.4
	s-10.4,4.6-10.4,10.4c0,2.8,1.1,5.3,2.9,7.2l-17.6,32.2l-32.8-0.6l73.1-159.8l140.5,2.3c-2.7-10.5-6.2-20.7-10.2-30.6l-171.8-5
	V310.2z"/>
<path class="st6" d="M840,397c0-21.2-2.7-41.8-7.7-61.4l-1.1,126.7C836.9,441.5,840,419.6,840,397z"/>
<path class="st6" d="M696.6,620.6l-170.8,1.6c-5.2,0-10,2.7-12.7,7.1c25.3,8.8,52.6,13.6,80.9,13.6C630.6,643,665.4,635,696.6,620.6
	z"/>
<path class="st4" d="M467.2,554c-4.2-31.9-28.4-56.4-58.3-62.5l-0.8-19.5c-2.7-0.2-6.3-0.2-10.4,0l-1.5-10.9
	c-1.1-8.1-8.2-13.9-16.2-13.5c-9.8-35.3-17.5-75.5-22.7-118.1c-1.5,5.1-2.7,10.3-3.9,15.6c5.2,37.3,12.2,72.4,20.9,103.8
	c-6.1,2.8-10,9.3-9,16.3l1.5,11c-1.9,0.4-3.7,0.8-5.3,1.2c17.7,51.1,51.7,94.5,95.8,124.1C465.6,587.8,469.5,571.2,467.2,554z
	 M374.3,474.9l-1.4-10.6c-0.4-3.2,1.1-6.2,3.6-7.8c0.4,1.3,0.8,2.6,1.2,4c0.4,1.3,1.5,2.1,2.8,2.1c0.3,0,0.6,0,0.8-0.1
	c1.6-0.5,2.4-2.1,2-3.7c-0.3-1.1-0.7-2.3-1-3.4c3.3,0.6,6,3.3,6.5,6.8l1.4,10.5C385,473.2,379.4,474,374.3,474.9z"/>
<path class="st3" d="M805.1,399.7l1.2-10.3l-5.3-1.6c0,0,3.9-26.9-12-38.9c-13.1-9.9-38.9-12.2-54.1-1.8
	c-13.8,9.4-16.8,29.9-16.8,29.9l-19.4,8.8l-0.5,5.8c5,0.8,14.9,1.9,27.1,3c-4.2,7.4-15,21.6-19.8,26.7c4.7,1,16.9,1.3,21.6,0.4
	l-1.8,16.1c17.1-0.9,31.7-8.6,35.9-15.7c0,13.6-13.3,28.8-29.9,33.2c2.9,6.6,6.7,23.3,8.2,33.2l35.6,0.7c2.9-14.3,5.7-35.7,7.4-55.1
	c2.2,2.8,5.9,4.6,10.1,4.6c6.8,0,10.7-4.7,10.7-10.5c0-5.8-3.9-10.5-10.7-10.5c-3.6,0-6.9,1.3-9.1,3.5c0.6-8.7,0.9-16.5,0.9-22.2
	C791.8,399.2,798.9,399.5,805.1,399.7z M744,416.8c-3.6,0-6.5-2.9-6.5-6.5c0-3.6,2.9-6.5,6.5-6.5c3.6,0,6.5,2.9,6.5,6.5
	C750.4,413.9,747.6,416.8,744,416.8z"/>
<path class="st6" d="M531.1,159.1c-7,1.8-13.9,4-20.7,6.4l0.9,1.5l-2.1-1.1l-10.4-5.2l2.1-11.3l9.5,16.1
	C517.2,163.1,524.1,161,531.1,159.1L474.2,72h-50.7L466,186.9c5.5-3.3,11.1-6.5,16.9-9.4l-7.4-18.3l12.5,5.9l-1.9,10.7
	c3.6-1.8,7.2-3.4,10.9-5l0.2-1.3l1.3,0.6l20.3,9.6l0.1,0.1l-5.1,29.5l-22-9.8l5.2-28.8c-3.7,1.6-7.3,3.3-10.9,5l-1.2,6.8l-2.1-5.2
	c-5.8,2.9-11.4,6-16.8,9.4l104.2,281.7l18.6-29.9l-10.1-24.8l11.2-57.3l41.6,13.4l18.2-29.3L531.1,159.1z M489.5,156.1l-19.3-9.7
	l22.7-10.4L489.5,156.1z M508.5,240.6l-10.2-25.2l13.6,5.4L508.5,240.6z M561.7,252l19.3,32.7l-24.5-10L561.7,252z M527.8,194.8
	l16.7,28.3l-20.5-9.1L527.8,194.8z M521.9,224.8l30.8,12.2l-6.6,33.4l-30.7-12.5L521.9,224.8z M537.8,313l-16-39.5l22.2,8.1
	L537.8,313z M571.8,396.9l-21.5-53.1l29.1,9.4L571.8,396.9z M581.3,342.1l-37-13.2v0l9.9-43.6l34.8,12.7L581.3,342.1z M592,345.9
	l6.3-32.1l25.8,43.5L592,345.9z"/>
<image style="overflow:visible;enable-background:new    ;" width="900" height="650" xlink:href="submarine.png"  transform="matrix(1 0 0 1 896.6166 390.1853)">
</image>
</svg>
