<?xml version="1.0" encoding="utf-8"?>
<!-- Generator: Adobe Illustrator 19.1.0, SVG Export Plug-In . SVG Version: 6.00 Build 0)  -->
<!DOCTYPE svg PUBLIC "-//W3C//DTD SVG 1.1//EN" "http://www.w3.org/Graphics/SVG/1.1/DTD/svg11.dtd">
<svg version="1.1" id="Layer_1" xmlns="http://www.w3.org/2000/svg" xmlns:xlink="http://www.w3.org/1999/xlink" x="0px" y="0px"
	 viewBox="144 72 900 650" style="enable-background:new 144 72 900 650;" xml:space="preserve">
<style type="text/css">
	.st0{fill:none;}
	.st1{fill:#BFB3E8;}
	.st2{fill:#407289;}
	.st3{fill:#E8E7E5;}
	.st4{fill:#CCB2A3;}
	.st5{fill:#F0C84A;}
	.st6{fill:#12272F;}
</style>
<path class="st0" d="M497.3,169.7l-0.2,1.3c0.5-0.2,1-0.5,1.6-0.7L497.3,169.7z"/>
<polygon class="st0" points="493,136.2 470.3,146.5 489.5,156.2 "/>
<path class="st0" d="M500.9,149.6l-2.1,11.3l10.4,5.2c0.4-0.1,0.8-0.3,1.2-0.4L500.9,149.6z"/>
<path class="st0" d="M349.3,558.2c-1.9-14.5,1.5-28.6,8.8-40.1c-15.6,12.3-24.5,32.2-21.7,53.3c4.2,31.9,33.5,54.3,65.4,50.1
	c13.5-1.8,25.2-8.1,34-17.1c-5.7,2.8-12,4.8-18.7,5.7C384.1,614.6,353.7,591.3,349.3,558.2z"/>
<circle class="st0" cx="534.5" cy="38.6" r="8.1"/>
<path class="st0" d="M832.3,334.7H832c0.1,0.4,0.2,0.7,0.3,1.1V334.7z"/>
<path class="st0" d="M390.5-13c-4.4,0-8.4-1.4-11.7-3.7c-18.1,40.1-29.1,115.2-29.7,203.4c-0.3,48.4,2.5,97.1,8.2,143
	c17.1-60.1,56.5-110.8,108.6-142.7L392-13.1C391.5-13.1,391-13,390.5-13z"/>
<path class="st1" d="M474.2,72.1l56.9,87.1c-7,1.8-13.9,4-20.7,6.4l-9.5-16.1l-2.1,11.3l10.4,5.2c-3.6,1.3-7.1,2.7-10.6,4.2
	l-1.3-0.6l-0.2,1.3c-3.7,1.6-7.3,3.3-10.9,5l1.9-10.7l-12.5-5.9l7.4,18.3c-5.8,2.9-11.4,6.1-16.9,9.4L423.5,72.1h-66.8
	c-4.6,33.7-7.3,72.6-7.6,114.5c-0.3,48.4,2.5,97.1,8.2,143c-1.5,5.1-2.7,10.3-3.9,15.6c-7-50.4-10.6-104.7-10.2-158.7
	c0.3-41.8,2.9-80.7,7.5-114.5H144v650h900V72.1H474.2z"/>
<path class="st0" d="M831.2,462.4C828,474,824,485.2,819.3,496l11.6,0.2L831.2,462.4z"/>
<path class="st0" d="M807.5,521.9H806c-3.1,5.2-6.3,10.3-9.7,15.2l12.1,0.2L807.5,521.9z"/>
<path class="st0" d="M488,165.2l-12.5-5.9l7.4,18.3c1.1-0.6,2.2-1.1,3.3-1.6L488,165.2z"/>
<polygon class="st2" points="561.7,252.1 556.5,274.8 581,284.8 "/>
<polygon class="st2" points="537.8,313.1 544,281.7 521.8,273.6 "/>
<polygon class="st2" points="598.2,313.9 592,346 624,357.4 "/>
<polygon class="st2" points="571.8,397 579.4,353.3 550.3,343.9 "/>
<polygon class="st2" points="508.5,240.7 511.9,220.9 498.2,215.6 "/>
<path class="st2" d="M510.5,165.7c-0.4,0.1-0.8,0.3-1.2,0.4l2.1,1.1L510.5,165.7z"/>
<path class="st2" d="M774.1,521.9l-0.9,14.9l23.1,0.3c3.4-4.9,6.7-10,9.7-15.2H774.1z"/>
<polygon class="st2" points="544.3,329 581.3,342.2 588.9,298.1 554.1,285.4 "/>
<path class="st2" d="M744,404c-3.6,0-6.5,2.9-6.5,6.5s2.9,6.5,6.5,6.5s6.5-2.9,6.5-6.5C750.4,406.8,747.6,404,744,404z"/>
<path class="st2" d="M486.1,176c-1.1,0.5-2.2,1.1-3.3,1.6l2.1,5.2L486.1,176z"/>
<path class="st2" d="M513.9,209.5L519,180l-0.1-0.1l-20.3-9.6c-0.5,0.2-1,0.5-1.6,0.7l-5.2,28.8L513.9,209.5z"/>
<polygon class="st2" points="527.8,194.9 524.1,214.1 544.5,223.2 "/>
<path class="st2" d="M365.4,465.4c-0.9-7,2.9-13.5,9-16.3c-8.7-31.4-15.7-66.6-20.9-103.8c-3.6,16.7-5.5,34-5.5,51.8
	c0,28.2,4.8,55.3,13.5,80.5c1.6-0.4,3.4-0.8,5.3-1.2L365.4,465.4z"/>
<path class="st2" d="M382.3,455.4c0.3,1.1,0.7,2.3,1,3.4c0.5,1.6-0.4,3.2-2,3.7c-0.3,0.1-0.6,0.1-0.8,0.1c-1.3,0-2.4-0.8-2.8-2.1
	c-0.4-1.3-0.8-2.6-1.2-4c-2.5,1.6-4.1,4.6-3.6,7.8l1.4,10.6c5.2-0.9,10.7-1.6,15.9-2.2l-1.4-10.5
	C388.3,458.7,385.6,456.1,382.3,455.4z"/>
<path class="st2" d="M832.3,335.7c-0.1-0.4-0.2-0.7-0.3-1.1l-140.5-2.3l-73.1,159.8l32.8,0.6l17.6-32.2c-1.8-1.9-2.9-4.4-2.9-7.2
	c0-5.7,4.6-10.4,10.4-10.4s10.4,4.6,10.4,10.4c0,5.7-4.6,10.4-10.4,10.4c-0.3,0-0.6-0.1-0.9-0.1l-9.9,29.4l153.9,2.9
	c4.8-10.8,8.8-22,11.9-33.6L832.3,335.7z M792.4,417.7c6.8,0,10.7,4.7,10.7,10.5s-3.9,10.5-10.7,10.5c-4.2,0-7.9-1.8-10.1-4.6
	c-1.7,19.4-4.4,40.9-7.4,55.1l-35.6-0.7c-1.4-9.9-5.3-26.6-8.2-33.2c16.6-4.4,29.9-19.6,29.9-33.2c-4.2,7.1-18.7,14.8-35.9,15.7
	l1.8-16.1c-4.7,0.9-16.9,0.7-21.6-0.4c4.9-5.1,15.6-19.3,19.8-26.7c-12.2-1.1-22.1-2.1-27.1-3l0.5-5.8l19.4-8.8
	c0,0,3-20.4,16.8-29.9c15.2-10.4,41-8.1,54.1,1.8c15.9,12,12,38.9,12,38.9l5.3,1.6l-1.2,10.3c-6.2-0.2-13.3-0.5-20.8-0.8
	c0,5.7-0.3,13.5-0.9,22.2C785.6,419,788.8,417.7,792.4,417.7z"/>
<polygon class="st2" points="546.2,270.6 552.8,237.1 521.9,224.9 515.5,258 "/>
<circle class="st3" cx="392.2" cy="563.4" r="66"/>
<path class="st2" d="M525.8,622.3l170.8-1.6c4.1-1.9,8.1-3.9,12.1-6l-153.1,1.4l-2.7-108.7l116-186.4l-19-10.8v-11.3l171.8,5
	C785.1,214.3,696.9,151.1,594,151.1c-21.7,0-42.8,2.8-62.9,8.1l118.6,181.6l-18.2,29.3l-41.6-13.4L578.7,414l10.1,24.8l-18.6,29.9
	L466,187c-52.2,31.8-91.5,82.6-108.6,142.7c5.3,42.6,12.9,82.8,22.7,118.1c8-0.4,15.1,5.4,16.2,13.5l1.5,10.9
	c4.1-0.2,7.7-0.3,10.4,0l0.8,19.5c29.9,6.1,54,30.5,58.3,62.5c2.3,17.2-1.6,33.7-9.8,47.5c17.2,11.5,35.9,20.9,55.8,27.8
	C515.8,625.1,520.6,622.4,525.8,622.3z"/>
<circle class="st0" cx="534.5" cy="38.6" r="8.1"/>
<path class="st0" d="M390.5-13c-4.4,0-8.4-1.4-11.7-3.7c-9.5,21-17,51.7-22.1,88.9h66.8L392-13.1C391.5-13.1,391-13,390.5-13z"/>
<polygon class="st4" points="493,136.2 470.3,146.5 489.5,156.2 "/>
<path class="st5" d="M650,310.3l19,10.8L553,507.5l2.7,108.7l153.1-1.4c35-18.5,65.1-45.2,87.5-77.6l-23.1-0.3l0.9-14.9H806
	c4.9-8.3,9.4-17,13.3-25.9l-154-3l9.9-29.4c0.3,0,0.6,0.1,0.9,0.1c5.7,0,10.4-4.6,10.4-10.4s-4.6-10.4-10.4-10.4
	s-10.4,4.6-10.4,10.4c0,2.8,1.1,5.3,2.9,7.2L651,492.8l-32.8-0.6l73.1-159.8l140.5,2.3c-2.7-10.5-6.2-20.7-10.2-30.6l-171.8-5v11.2
	H650z"/>
<path class="st5" d="M840,397.1c0-21.2-2.7-41.8-7.7-61.4l-1.1,126.7C836.9,441.6,840,419.7,840,397.1z"/>
<path class="st5" d="M696.6,620.7l-170.8,1.6c-5.2,0-10,2.7-12.7,7.1c25.3,8.8,52.6,13.6,80.9,13.6
	C630.6,643.1,665.4,635.1,696.6,620.7z"/>
<path class="st6" d="M467.2,554.1c-4.2-31.9-28.4-56.4-58.3-62.5l-0.8-19.5c-2.7-0.2-6.3-0.2-10.4,0l-1.5-10.9
	c-1.1-8.1-8.2-13.9-16.2-13.5c-9.8-35.2-17.5-75.3-22.7-117.8c0-0.1,0-0.1,0.1-0.2c-5.7-45.9-8.5-94.6-8.2-143
	c0.3-41.9,2.9-80.9,7.6-114.5h-5.9c-4.6,33.8-7.3,72.7-7.5,114.5c-0.5,53.8,3.1,107.9,10.1,158.3c0,0.1,0,0.2-0.1,0.2
	c5.2,37.3,12.2,72.4,20.9,103.8c-6.1,2.8-10,9.3-9,16.3l1.5,11c-1.9,0.4-3.7,0.8-5.3,1.2c0,0.1,0.1,0.2,0.1,0.3
	c-1.4,0.4-2.7,0.7-3.8,1.2l4.3,19c-27.3,13.7-44.2,43.5-40,75.5c5.3,40.3,42.4,68.7,82.7,63.3c23.1-3.1,42.3-16.6,53.5-35.2
	c-0.2-0.2-0.5-0.3-0.7-0.5C465.7,587.5,469.5,571.1,467.2,554.1z M376.5,456.6c0.4,1.3,0.8,2.6,1.2,4c0.4,1.3,1.5,2.1,2.8,2.1
	c0.3,0,0.6,0,0.8-0.1c1.6-0.5,2.4-2.1,2-3.7c-0.3-1.1-0.7-2.3-1-3.4c3.3,0.6,6,3.3,6.5,6.8l1.4,10.5c-5.2,0.5-10.8,1.3-15.9,2.2
	l-1.4-10.6C372.5,461.2,374,458.2,376.5,456.6z M402.8,621.6c-31.9,4.2-61.2-18.2-65.4-50.1c-2.8-21.1,6.1-41,21.7-53.3
	c-7.3,11.5-10.7,25.5-8.8,40.1c4.4,33.1,34.8,56.3,67.8,51.9c6.7-0.9,13-2.9,18.7-5.7C428,613.5,416.3,619.8,402.8,621.6z"/>
<path class="st3" d="M805.1,399.8l1.2-10.3l-5.3-1.6c0,0,3.9-26.9-12-38.9c-13.1-9.9-38.9-12.2-54.1-1.8
	c-13.8,9.4-16.8,29.9-16.8,29.9l-19.4,8.8l-0.5,5.8c5,0.8,14.9,1.9,27.1,3c-4.2,7.4-15,21.6-19.8,26.7c4.7,1,16.9,1.3,21.6,0.4
	l-1.8,16.1c17.1-0.9,31.7-8.6,35.9-15.7c0,13.6-13.3,28.8-29.9,33.2c2.9,6.6,6.7,23.3,8.2,33.2l35.6,0.7c2.9-14.3,5.7-35.7,7.4-55.1
	c2.2,2.8,5.9,4.6,10.1,4.6c6.8,0,10.7-4.7,10.7-10.5s-3.9-10.5-10.7-10.5c-3.6,0-6.9,1.3-9.1,3.5c0.6-8.7,0.9-16.5,0.9-22.2
	C791.8,399.3,798.9,399.6,805.1,399.8z M744,416.9c-3.6,0-6.5-2.9-6.5-6.5s2.9-6.5,6.5-6.5s6.5,2.9,6.5,6.5
	C750.4,414,747.6,416.9,744,416.9z"/>
<path class="st5" d="M531.1,159.2c-7,1.8-13.9,4-20.7,6.4l0.9,1.5l-2.1-1.1l-10.4-5.2l2.1-11.3l9.5,16.1
	C517.2,163.2,524.1,161.1,531.1,159.2l-56.9-87.1h-50.7L466,187c5.5-3.3,11.1-6.5,16.9-9.4l-7.4-18.3l12.5,5.9l-1.9,10.7
	c3.6-1.8,7.2-3.4,10.9-5l0.2-1.3l1.3,0.6l20.3,9.6l0.1,0.1l-5.1,29.5l-22-9.8l5.2-28.8c-3.7,1.6-7.3,3.3-10.9,5l-1.2,6.8l-2.1-5.2
	c-5.8,2.9-11.4,6-16.8,9.4l104.2,281.7l18.6-29.9l-10.1-24.8l11.2-57.3l41.6,13.4l18.2-29.3L531.1,159.2z M489.5,156.2l-19.3-9.7
	l22.7-10.4L489.5,156.2z M508.5,240.7l-10.2-25.2l13.6,5.4L508.5,240.7z M561.7,252.1l19.3,32.7l-24.5-10L561.7,252.1z M527.8,194.9
	l16.7,28.3l-20.5-9.1L527.8,194.9z M521.9,224.9l30.8,12.2l-6.6,33.4L515.4,258L521.9,224.9z M537.8,313.1l-16-39.5l22.2,8.1
	L537.8,313.1z M571.8,397l-21.5-53.1l29.1,9.4L571.8,397z M581.3,342.2l-37-13.2l0,0l9.9-43.6l34.8,12.7L581.3,342.2z M592,346
	l6.3-32.1l25.8,43.5L592,346z"/>
</svg>
