<?xml version="1.0" encoding="utf-8"?>
<!-- Generator: Adobe Illustrator 19.1.0, SVG Export Plug-In . SVG Version: 6.00 Build 0)  -->
<!DOCTYPE svg PUBLIC "-//W3C//DTD SVG 1.1//EN" "http://www.w3.org/Graphics/SVG/1.1/DTD/svg11.dtd">
<svg version="1.1" id="fractals" xmlns="http://www.w3.org/2000/svg" xmlns:xlink="http://www.w3.org/1999/xlink" x="0px" y="0px"
	 viewBox="0 0 900 650" style="enable-background:new 0 0 900 650;" xml:space="preserve">
<g id="XMLID_1_">
	<g>
		<rect style="fill:#1FA4B6;" width="900" height="650"/>
	</g>
	<g>
	</g>
</g>
<path style="fill:none;" d="M486.03,81.63c-9.46-1.39-19.1-2.24-28.89-2.52c3.35-3.64,8.14-5.93,13.48-5.93
	C477.1,73.18,482.78,76.56,486.03,81.63z"/>
<path style="fill:#37B39C;" d="M205.59,352.92c-2.57,2.52-6.08,4.08-9.95,4.08c-7.83,0-14.17-6.37-14.17-14.17
	c0-7.82,6.34-14.23,14.17-14.23c3.16,0,6.08,1.06,8.44,2.82C204.27,338.67,204.79,345.84,205.59,352.92z"/>
<path style="fill:#37B39C;" d="M710.11,298.45c0,8.41-6.25,15.33-14.33,16.41c-0.46-11.16-1.64-22.13-3.53-32.87
	c0.43-0.03,0.87-0.06,1.31-0.06C702.69,281.93,710.11,289.34,710.11,298.45z"/>
<path style="fill:#37B39C;" d="M693.56,410.84c0,5.21-4.25,9.45-9.46,9.45c-2.41,0-4.6-0.91-6.27-2.38
	c2.21-5.42,4.24-10.94,6.07-16.54c0.06,0,0.13-0.01,0.2-0.01C689.31,401.36,693.56,405.61,693.56,410.84z"/>
<path style="fill:#37B39C;" d="M488.93,91.5c0,10.12-8.19,18.33-18.31,18.33c-10.13,0-18.34-8.21-18.34-18.33
	c0-4.78,1.85-9.13,4.86-12.39c9.79,0.28,19.43,1.13,28.89,2.52C487.86,84.48,488.93,87.86,488.93,91.5z"/>
<path style="fill:#E25B49;" d="M288.982,181.585c0-0.729-0.097-1.491-0.115-2.221c-8.635-1.491-15.23-9.012-15.23-18.08
	c0-10.107,8.226-18.36,18.337-18.36c10.166,0,18.39,8.253,18.39,18.36c0,6.277-3.152,11.77-7.906,15.097
	c2.837,10.966,4.356,22.446,4.356,34.334c0,4.411-0.302,8.723-0.714,13.069c48.384,29.893,91.136,67.94,126.394,112.296
	c12.984-41.063,25.241-80.31,31.868-117.563c-20.992-26.792-47.495-48.949-77.774-65.085c-4.217,5.32-10.671,8.807-17.977,8.807
	c-12.747,0-23.101-10.331-23.101-23.11c0-12.747,10.354-23.081,23.101-23.081c12.747,0,23.08,10.334,23.08,23.081
	c0,1.201-0.172,2.338-0.35,3.487c27.966,9.829,53.982,23.745,77.49,40.901c1.361-19.881,0.38-39.162-3.567-57.766
	c-17.186-1.117-30.799-15.377-30.799-32.822c0-4.856,1.058-9.461,2.943-13.61c-81.246,4.096-152.088,47.617-193.809,111.81
	c14.35,6.218,28.354,13.1,41.959,20.608C287.726,202.026,288.982,191.981,288.982,181.585z"/>
<path style="fill:#E25B49;" d="M226.599,333.26c40.521-7.768,76.538-28.091,103.9-56.782c-28.767-27.34-60.82-51.222-95.562-70.967
	c-17.975,32.283-28.894,69.027-30.669,108.161C214.892,315.452,223.439,323.15,226.599,333.26z"/>
<path style="fill:#37B39C;" d="M695.78,314.86c-0.73,0.1-1.47,0.17-2.22,0.17c-9.15,0-16.56-7.42-16.56-16.58
	c0-8.67,6.72-15.78,15.25-16.46C694.14,292.73,695.32,303.7,695.78,314.86z"/>
<path style="fill:#E25B49;" d="M670.418,318.775c-20.74,8.937-40.731,19.269-59.85,30.911
	c12.939,22.918,32.992,41.275,57.199,51.996c3.615-6.277,10.306-10.526,18.075-10.526c0.382,0,0.754,0.037,1.131,0.057
	c5.15-18.469,8.192-37.814,8.866-57.761C685.208,332.804,675.948,327.119,670.418,318.775z"/>
<path style="fill:#37B39C;" d="M209.84,342.83c0,3.94-1.63,7.52-4.25,10.09c-0.8-7.08-1.32-14.25-1.51-21.5
	C207.57,334.02,209.84,338.17,209.84,342.83z"/>
<path style="fill:#E25B49;" d="M480.718,122.992c6.722,25.803,8.31,53.862,6.992,83.315c10.021-9.25,20.66-17.845,31.866-25.741
	c1.426-17.565,7.226-33.669,16.234-47.051c-2.758-3.305-4.469-7.489-4.469-12.112c0-10.461,8.493-18.959,18.992-18.959
	c10.479,0,18.992,8.498,18.992,18.959c0,10.494-8.513,19.024-18.992,19.024c-1.684,0-3.267-0.322-4.824-0.7
	c-2.945,8.628-4.753,17.92-5.245,27.554c21.523-12.612,44.73-22.575,69.216-29.571c-31.091-26.5-68.853-45.401-110.426-53.814
	c0.817,2.871,1.263,5.897,1.263,9.03C500.317,106.371,492.248,117.884,480.718,122.992z"/>
<path style="fill:#E25B49;" d="M620.143,149.59c-57.037,23.872-105.181,64.71-138.029,116.265
	c-7.024,53.133-18.037,108.811-21.622,162.683c17.435-17.79,36.225-34.184,56.18-49.141c0.51-31.641,10.097-60.686,25.858-83.862
	c-2.982-3.649-4.866-8.22-4.866-13.284c0-11.545,9.367-20.902,20.893-20.902c11.538,0,20.91,9.357,20.91,20.902
	c0,11.533-9.372,20.89-20.91,20.89c-1.681,0-3.295-0.257-4.866-0.632c-7.309,17.94-11.508,37.918-11.605,59.065
	c37.731-24.667,79.013-44.355,123.004-57.961c-0.097-0.977-0.16-1.996-0.16-3.015c0-15.288,10.444-28.149,24.603-31.841
	c-9.458-40.438-28.898-77.03-55.571-107.056C628.133,159.293,623.282,154.995,620.143,149.59z"/>
<path style="fill:#37B39C;" d="M683.9,401.37c-1.83,5.6-3.86,11.12-6.07,16.54c-1.96-1.74-3.2-4.26-3.2-7.07
	C674.63,405.68,678.75,401.48,683.9,401.37z"/>
<path style="fill:#E25B49;" d="M324.287,420.382c-5.231,6.095-12.892,10.022-21.529,10.022c-15.729,0-28.503-12.744-28.503-28.464
	c0-15.762,12.774-28.541,28.503-28.541c15.724,0,28.486,12.779,28.486,28.541c0,1.674-0.202,3.292-0.492,4.946
	c25.923,12.102,48.814,29.58,67.183,51.072c5.39-24.507,12-48.509,19.039-72.007c-18.385-31.706-40.199-61.126-64.995-87.789
	c-33.304,29.388-76.743,47.552-124.445,48.542c-1.858,10.573-9.519,19.174-19.605,22.295
	c16.87,93.427,86.499,168.492,176.924,193.264c0.277-18.739,1.835-37.235,4.315-55.506
	C375.821,472.293,353.188,442.486,324.287,420.382z"/>
<path style="fill:#E25B49;" d="M665.01,412.776c-30.804-6.749-57.232-25.074-74.555-50.193
	c-50.987,34.496-95.117,78.284-129.913,129.011c2.184,27.107,7.661,53.227,18.131,77.733
	c86.447-10.037,159.216-64.881,194.485-140.711C668.381,424.932,665.239,419.227,665.01,412.776z"/>
<path style="fill:#E8E7E5;" d="M730.78,300.6c0,18.21-14.74,32.92-32.9,32.92c-0.69,0-1.37-0.03-2.04-0.07
	c0.09-2.8,0.16-5.62,0.16-8.45c0-3.4-0.09-6.77-0.22-10.14c8.08-1.08,14.33-8,14.33-16.41c0-9.11-7.42-16.52-16.55-16.52
	c-0.44,0-0.88,0.03-1.31,0.06c-0.79-4.45-1.7-8.86-2.72-13.23c2.67-0.7,5.46-1.07,8.35-1.07
	C716.04,267.69,730.78,282.43,730.78,300.6z"/>
<path style="fill:#E8E7E5;" d="M240.44,189.76c0.57-2.44,0.9-4.98,0.9-7.57c0-18.18-14.76-32.92-32.92-32.92
	c-18.19,0-32.93,14.74-32.93,32.92c0,18.19,14.74,32.94,32.93,32.94c9.67,0,18.34-4.19,24.36-10.85c0.73,0.4,1.44,0.82,2.16,1.23
	c2.73-4.9,5.61-9.7,8.66-14.38C242.55,190.67,241.5,190.21,240.44,189.76z M203.91,199.72c-9.78,0-17.72-7.93-17.72-17.73
	c0-9.82,7.94-17.76,17.72-17.76c9.82,0,17.76,7.94,17.76,17.76C221.67,191.79,213.73,199.72,203.91,199.72z"/>
<path style="fill:#37B39C;" d="M221.67,181.99c0,9.8-7.94,17.73-17.76,17.73c-9.78,0-17.72-7.93-17.72-17.73
	c0-9.82,7.94-17.76,17.72-17.76C213.73,164.23,221.67,172.17,221.67,181.99z"/>
<path style="fill:#E8E7E5;" d="M706.73,412.05c0,11.54-9.36,20.9-20.89,20.9c-4.78,0-9.17-1.63-12.68-4.33
	c1.64-3.53,3.2-7.1,4.67-10.71c1.67,1.47,3.86,2.38,6.27,2.38c5.21,0,9.46-4.24,9.46-9.45c0-5.23-4.25-9.48-9.46-9.48
	c-0.07,0-0.14,0.01-0.2,0.01c1.09-3.35,2.12-6.74,3.07-10.16C697.97,391.81,706.73,400.89,706.73,412.05z"/>
<path style="fill:#E8E7E5;" d="M207.93,369c-2.65,0.82-5.46,1.26-8.38,1.26c-15.74,0-28.5-12.77-28.5-28.5
	c0-15.73,12.76-28.48,28.5-28.48c1.61,0,3.19,0.13,4.72,0.39C204.1,317.43,204,321.2,204,325c0,2.15,0.03,4.29,0.08,6.42
	c-2.36-1.76-5.28-2.82-8.44-2.82c-7.83,0-14.17,6.41-14.17,14.23c0,7.8,6.34,14.17,14.17,14.17c3.87,0,7.38-1.56,9.95-4.08
	C206.2,358.34,206.97,363.7,207.93,369z"/>
<path style="fill:#E8E7E5;" d="M457.141,79.11c3.352-3.637,8.143-5.931,13.481-5.931c6.478,0,12.156,3.377,15.41,8.455
	c4.378,0.643,8.721,1.393,13.022,2.263c-3.926-13.801-16.615-23.907-31.667-23.907c-13.328,0-24.801,7.928-29.979,19.327
	C441.579,79.107,445.777,79,450,79C452.389,79,454.768,79.043,457.141,79.11z"/>
<path style="fill:#E8E7E5;" d="M644.67,106.85c-15.74,0-28.49,12.74-28.49,28.5c0,0.16,0.05,0.36,0.05,0.51
	c-2.26,0.59-4.51,1.21-6.75,1.85c8.71,7.42,16.89,15.44,24.48,23.99c3.3,1.36,6.91,2.13,10.71,2.13c15.74,0,28.51-12.75,28.51-28.48
	C673.18,119.59,660.41,106.85,644.67,106.85z M644.46,153.58c-8.5,0-15.36-6.88-15.36-15.38c0-8.49,6.86-15.37,15.36-15.37
	s15.4,6.88,15.4,15.37C659.86,146.7,652.96,153.58,644.46,153.58z"/>
<path style="fill:#37B39C;" d="M659.86,138.2c0,8.5-6.9,15.38-15.4,15.38s-15.36-6.88-15.36-15.38c0-8.49,6.86-15.37,15.36-15.37
	S659.86,129.71,659.86,138.2z"/>
<path style="fill:#E8E7E5;" d="M695.84,333.45c0.09-2.8,0.16-5.62,0.16-8.45c0-3.4-0.09-6.77-0.22-10.14
	c-0.73,0.1-1.47,0.17-2.22,0.17c-9.15,0-16.56-7.42-16.56-16.58c0-8.67,6.72-15.78,15.25-16.46c-0.79-4.45-1.7-8.86-2.72-13.23
	c-14.16,3.69-24.6,16.55-24.6,31.84c0,1.02,0.06,2.04,0.16,3.01c-43.99,13.61-85.27,33.3-123,57.96
	c0.09-21.14,4.29-41.12,11.6-59.06c1.57,0.37,3.19,0.63,4.87,0.63c11.54,0,20.91-9.36,20.91-20.89c0-11.54-9.37-20.9-20.91-20.9
	c-11.53,0-20.89,9.36-20.89,20.9c0,5.06,1.88,9.64,4.86,13.28c-15.76,23.18-25.35,52.23-25.86,83.87
	c-19.95,14.95-38.74,31.35-56.18,49.14c3.59-53.87,14.6-109.55,21.62-162.69c32.85-51.55,81-92.39,138.03-116.26
	c3.14,5.41,7.99,9.7,13.82,12.11c-7.59-8.55-15.77-16.57-24.48-23.99c-24.49,7-47.69,16.96-69.22,29.57
	c0.49-9.63,2.3-18.92,5.25-27.55c1.55,0.38,3.14,0.7,4.82,0.7c10.48,0,18.99-8.53,18.99-19.03c0-10.46-8.51-18.96-18.99-18.96
	c-10.5,0-18.99,8.5-18.99,18.96c0,4.63,1.71,8.81,4.47,12.12C526.8,146.9,521,163,519.58,180.57
	c-11.21,7.89-21.85,16.49-31.87,25.74c1.32-29.46-0.27-57.51-6.99-83.32c11.53-5.11,19.6-16.62,19.6-30.06
	c0-3.14-0.45-6.16-1.27-9.03c-4.3-0.87-8.64-1.62-13.02-2.27c1.83,2.85,2.9,6.23,2.9,9.87c0,10.12-8.19,18.33-18.31,18.33
	c-10.13,0-18.34-8.21-18.34-18.33c0-4.78,1.85-9.13,4.86-12.39C454.77,79.04,452.39,79,450,79c-4.22,0-8.42,0.11-12.59,0.32
	c-1.89,4.15-2.95,8.75-2.95,13.61c0,17.44,13.62,31.7,30.8,32.82c3.95,18.6,4.93,37.89,3.57,57.77
	c-23.51-17.16-49.52-31.08-77.49-40.9c0.18-1.15,0.35-2.29,0.35-3.49c0-12.75-10.33-23.08-23.08-23.08s-23.1,10.33-23.1,23.08
	c0,12.78,10.35,23.11,23.1,23.11c7.31,0,13.76-3.49,17.98-8.81c30.28,16.14,56.78,38.29,77.77,65.09
	c-6.63,37.25-18.88,76.5-31.87,117.56c-35.25-44.35-78.01-82.4-126.39-112.3c0.41-4.34,0.71-8.65,0.71-13.06
	c0-11.89-1.51-23.37-4.35-34.34c4.75-3.33,7.9-8.82,7.9-15.1c0-10.1-8.22-18.35-18.39-18.35c-10.11,0-18.33,8.25-18.33,18.35
	c0,9.07,6.59,16.59,15.23,18.08c0.01,0.73,0.11,1.5,0.11,2.23c0,10.39-1.25,20.44-3.42,30.14c-13.61-7.5-27.61-14.39-41.96-20.6
	c-3.05,4.68-5.93,9.48-8.66,14.38c34.74,19.75,66.79,43.63,95.56,70.97c-27.36,28.69-63.38,49.01-103.9,56.78
	c-3.16-10.11-11.71-17.81-22.33-19.59C204.1,317.43,204,321.2,204,325c0,2.15,0.03,4.29,0.08,6.42c3.49,2.6,5.76,6.75,5.76,11.41
	c0,3.94-1.63,7.52-4.25,10.09c0.61,5.42,1.38,10.78,2.34,16.08c10.08-3.12,17.75-11.72,19.6-22.3
	c47.71-0.99,91.14-19.15,124.45-48.54c24.8,26.66,46.61,56.08,64.99,87.79c-7.03,23.5-13.64,47.5-19.03,72.01
	c-18.37-21.49-41.26-38.97-67.19-51.07c0.29-1.66,0.49-3.28,0.49-4.95c0-15.76-12.76-28.54-28.48-28.54
	c-15.73,0-28.51,12.78-28.51,28.54c0,15.72,12.78,28.46,28.51,28.46c8.64,0,16.3-3.92,21.53-10.02
	c28.9,22.11,51.53,51.91,64.88,86.38c-2.48,18.27-4.04,36.76-4.32,55.5C405.6,567.95,427.44,571,450,571
	c9.7,0,19.27-0.58,28.67-1.67c-10.47-24.51-15.94-50.63-18.13-77.74c34.8-50.72,78.93-94.51,129.92-129.01
	c17.32,25.12,43.75,43.45,74.55,50.2c0.23,6.45,3.37,12.15,8.15,15.84c1.64-3.53,3.2-7.1,4.67-10.71c-1.96-1.74-3.2-4.26-3.2-7.07
	c0-5.16,4.12-9.36,9.27-9.47c1.09-3.35,2.12-6.74,3.07-10.16c-0.37-0.02-0.75-0.05-1.13-0.05c-7.77,0-14.46,4.25-18.07,10.52
	c-24.21-10.72-44.26-29.08-57.2-51.99c19.12-11.65,39.11-21.98,59.85-30.92C675.95,327.12,685.21,332.8,695.84,333.45z
	 M558.13,271.84c5.23,0,9.47,4.25,9.47,9.49c0,5.22-4.24,9.44-9.47,9.44s-9.45-4.22-9.45-9.44
	C548.68,276.09,552.9,271.84,558.13,271.84z M548.68,112.78c4.88,0,8.86,3.99,8.86,8.91c0,4.88-3.98,8.84-8.86,8.84
	c-4.9,0-8.87-3.96-8.87-8.84C539.81,116.77,543.78,112.78,548.68,112.78z M372.46,150.03c-6.22,0-11.22-5.01-11.22-11.22
	c0-6.22,5-11.23,11.22-11.23c6.2,0,11.22,5.01,11.22,11.23C383.68,145.02,378.66,150.03,372.46,150.03z M293.82,168.96
	c-4.9,0-8.88-3.96-8.88-8.84c0-4.92,3.98-8.88,8.88-8.88c4.88,0,8.86,3.96,8.86,8.88C302.68,165,298.7,168.96,293.82,168.96z
	 M305.04,415.53c-7.51,0-13.6-6.08-13.6-13.56c0-7.52,6.09-13.64,13.6-13.64c7.53,0,13.6,6.12,13.6,13.64
	C318.64,409.45,312.57,415.53,305.04,415.53z"/>
<path style="fill:#37B39C;" d="M567.6,281.33c0,5.22-4.24,9.44-9.47,9.44s-9.45-4.22-9.45-9.44c0-5.24,4.22-9.49,9.45-9.49
	S567.6,276.09,567.6,281.33z"/>
<path style="fill:#37B39C;" d="M557.54,121.69c0,4.88-3.98,8.84-8.86,8.84c-4.9,0-8.87-3.96-8.87-8.84c0-4.92,3.97-8.91,8.87-8.91
	C553.56,112.78,557.54,116.77,557.54,121.69z"/>
<path style="fill:#37B39C;" d="M302.68,160.12c0,4.88-3.98,8.84-8.86,8.84c-4.9,0-8.88-3.96-8.88-8.84c0-4.92,3.98-8.88,8.88-8.88
	C298.7,151.24,302.68,155.2,302.68,160.12z"/>
<path style="fill:#37B39C;" d="M383.68,138.81c0,6.21-5.02,11.22-11.22,11.22c-6.22,0-11.22-5.01-11.22-11.22
	c0-6.22,5-11.23,11.22-11.23C378.66,127.58,383.68,132.59,383.68,138.81z"/>
<path style="fill:#37B39C;" d="M318.64,401.97c0,7.48-6.07,13.56-13.6,13.56c-7.51,0-13.6-6.08-13.6-13.56
	c0-7.52,6.09-13.64,13.6-13.64C312.57,388.33,318.64,394.45,318.64,401.97z"/>
</svg>
