<?xml version="1.0" encoding="utf-8"?>
<!-- Generator: Adobe Illustrator 19.1.0, SVG Export Plug-In . SVG Version: 6.00 Build 0)  -->
<!DOCTYPE svg PUBLIC "-//W3C//DTD SVG 1.1//EN" "http://www.w3.org/Graphics/SVG/1.1/DTD/svg11.dtd">
<svg version="1.1" id="fractals" xmlns="http://www.w3.org/2000/svg" xmlns:xlink="http://www.w3.org/1999/xlink" x="0px" y="0px"
	 viewBox="144 72 900 650" style="enable-background:new 144 72 900 650;" xml:space="preserve">
<style type="text/css">
	.st0{fill:#E25B49;}
	.st1{fill:#2C3E50;}
	.st2{fill:#37B39C;}
</style>
<path class="st0" d="M433,253.6c0-0.7-0.1-1.5-0.1-2.2c-8.6-1.5-15.2-9-15.2-18.1c0-10.1,8.2-18.4,18.3-18.4
	c10.2,0,18.4,8.3,18.4,18.4c0,6.3-3.2,11.8-7.9,15.1c2.8,11,4.4,22.4,4.4,34.3c0,4.4-0.3,8.7-0.7,13.1
	c48.4,29.9,91.1,67.9,126.4,112.3c13-41.1,25.2-80.3,31.9-117.6c-21-26.8-47.5-48.9-77.8-65.1c-4.2,5.3-10.7,8.8-18,8.8
	c-12.7,0-23.1-10.3-23.1-23.1c0-12.7,10.4-23.1,23.1-23.1s23.1,10.3,23.1,23.1c0,1.2-0.2,2.3-0.4,3.5c28,9.8,54,23.7,77.5,40.9
	c1.4-19.9,0.4-39.2-3.6-57.8c-17.2-1.1-30.8-15.4-30.8-32.8c0-4.9,1.1-9.5,2.9-13.6c-81.2,4.1-152.1,47.6-193.8,111.8
	c14.3,6.2,28.4,13.1,42,20.6C431.7,274,433,264,433,253.6z"/>
<path class="st0" d="M370.6,405.3c40.5-7.8,76.5-28.1,103.9-56.8c-28.8-27.3-60.8-51.2-95.6-71c-18,32.3-28.9,69-30.7,108.2
	C358.9,387.5,367.4,395.1,370.6,405.3z"/>
<path class="st0" d="M814.4,390.8c-20.7,8.9-40.7,19.3-59.8,30.9c12.9,22.9,33,41.3,57.2,52c3.6-6.3,10.3-10.5,18.1-10.5
	c0.4,0,0.8,0,1.1,0.1c5.2-18.5,8.2-37.8,8.9-57.8C829.2,404.8,819.9,399.1,814.4,390.8z"/>
<path class="st0" d="M624.7,195c6.7,25.8,8.3,53.9,7,83.3c10-9.2,20.7-17.8,31.9-25.7c1.4-17.6,7.2-33.7,16.2-47.1
	c-2.8-3.3-4.5-7.5-4.5-12.1c0-10.5,8.5-19,19-19c10.5,0,19,8.5,19,19c0,10.5-8.5,19-19,19c-1.7,0-3.3-0.3-4.8-0.7
	c-2.9,8.6-4.8,17.9-5.2,27.6c21.5-12.6,44.7-22.6,69.2-29.6c-31.1-26.5-68.9-45.4-110.4-53.8c0.8,2.9,1.3,5.9,1.3,9
	C644.3,178.4,636.2,189.9,624.7,195z"/>
<path class="st0" d="M764.1,221.6c-57,23.9-105.2,64.7-138,116.3c-7,53.1-18,108.8-21.6,162.7c17.4-17.8,36.2-34.2,56.2-49.1
	c0.5-31.6,10.1-60.7,25.9-83.9c-3-3.6-4.9-8.2-4.9-13.3c0-11.5,9.4-20.9,20.9-20.9c11.5,0,20.9,9.4,20.9,20.9
	c0,11.5-9.4,20.9-20.9,20.9c-1.7,0-3.3-0.3-4.9-0.6c-7.3,17.9-11.5,37.9-11.6,59.1c37.7-24.7,79-44.4,123-58c-0.1-1-0.2-2-0.2-3
	c0-15.3,10.4-28.1,24.6-31.8c-9.5-40.4-28.9-77-55.6-107.1C772.1,231.3,767.3,227,764.1,221.6z"/>
<path class="st0" d="M468.3,492.4c-5.2,6.1-12.9,10-21.5,10c-15.7,0-28.5-12.7-28.5-28.5c0-15.8,12.8-28.5,28.5-28.5
	c15.7,0,28.5,12.8,28.5,28.5c0,1.7-0.2,3.3-0.5,4.9c25.9,12.1,48.8,29.6,67.2,51.1c5.4-24.5,12-48.5,19-72
	c-18.4-31.7-40.2-61.1-65-87.8c-33.3,29.4-76.7,47.6-124.4,48.5c-1.9,10.6-9.5,19.2-19.6,22.3c16.9,93.4,86.5,168.5,176.9,193.3
	c0.3-18.7,1.8-37.2,4.3-55.5C519.8,544.3,497.2,514.5,468.3,492.4z"/>
<path class="st0" d="M809,484.8c-30.8-6.7-57.2-25.1-74.6-50.2c-51,34.5-95.1,78.3-129.9,129c2.2,27.1,7.7,53.2,18.1,77.7
	c86.4-10,159.2-64.9,194.5-140.7C812.4,496.9,809.2,491.2,809,484.8z"/>
<g>
	<path class="st1" d="M384.4,261.8c0.6-2.4,0.9-5,0.9-7.6c0-18.2-14.8-32.9-32.9-32.9c-18.2,0-32.9,14.7-32.9,32.9
		c0,18.2,14.7,32.9,32.9,32.9c9.7,0,18.3-4.2,24.4-10.8c0.7,0.4,1.4,0.8,2.2,1.2c2.7-4.9,5.6-9.7,8.7-14.4
		C386.5,262.7,385.5,262.2,384.4,261.8z M347.9,271.7c-9.8,0-17.7-7.9-17.7-17.7c0-9.8,7.9-17.8,17.7-17.8c9.8,0,17.8,7.9,17.8,17.8
		C365.7,263.8,357.7,271.7,347.9,271.7z"/>
	<path class="st2" d="M365.7,254c0,9.8-7.9,17.7-17.8,17.7c-9.8,0-17.7-7.9-17.7-17.7c0-9.8,7.9-17.8,17.7-17.8
		C357.7,236.2,365.7,244.2,365.7,254z"/>
	<path class="st1" d="M839.8,405.5c0.7,0,1.3,0.1,2,0.1c18.2,0,32.9-14.7,32.9-32.9c0-18.2-14.7-32.9-32.9-32.9
		c-2.9,0-5.7,0.4-8.3,1.1c-14.2,3.7-24.6,16.5-24.6,31.8c0,1,0.1,2,0.2,3c-44,13.6-85.3,33.3-123,58c0.1-21.1,4.3-41.1,11.6-59.1
		c1.6,0.4,3.2,0.6,4.9,0.6c0.4,0,0.7,0,1.1,0c0.2,0,0.3,0,0.5,0c0.2,0,0.5,0,0.7-0.1c0.2,0,0.4,0,0.6-0.1c0.3,0,0.6-0.1,0.8-0.1
		c0,0,0.1,0,0.1,0c0.3,0,0.6-0.1,0.8-0.2c0.2,0,0.4-0.1,0.6-0.1c0.7-0.2,1.3-0.4,2-0.6c0.2-0.1,0.4-0.2,0.6-0.2
		c0.2-0.1,0.4-0.2,0.6-0.2c0.3-0.1,0.6-0.2,0.9-0.4c0.1-0.1,0.3-0.1,0.4-0.2c0.2-0.1,0.5-0.2,0.7-0.4c0.2-0.1,0.3-0.2,0.5-0.3
		c0,0,0.1,0,0.1,0c0.2-0.1,0.4-0.3,0.6-0.4c0.6-0.4,1.2-0.8,1.7-1.3c0,0,0,0,0,0c0.2-0.2,0.4-0.4,0.6-0.6c0,0,0.1-0.1,0.1-0.1
		c0.2-0.2,0.3-0.3,0.5-0.5c0.1-0.1,0.2-0.2,0.4-0.3c0.2-0.2,0.3-0.3,0.5-0.5c0.5-0.5,0.9-1,1.3-1.6c0.4-0.5,0.8-1.1,1.1-1.7
		c0.3-0.6,0.7-1.2,1-1.8c0.3-0.6,0.6-1.2,0.8-1.9s0.4-1.3,0.6-2c0.2-0.7,0.3-1.3,0.4-2c0.1-0.3,0.1-0.7,0.1-1c0-0.4,0.1-0.7,0.1-1.1
		c0-0.4,0-0.7,0-1.1s0-0.7,0-1.1c0-0.3,0-0.7-0.1-1.1c0-0.3-0.1-0.7-0.1-1c-0.1-0.7-0.2-1.4-0.4-2c-0.2-0.7-0.4-1.3-0.6-2
		c-0.1-0.3-0.2-0.6-0.4-1c0,0,0,0,0,0c-0.1-0.3-0.3-0.6-0.4-0.9c-0.1-0.3-0.3-0.6-0.5-0.9c-0.2-0.3-0.3-0.6-0.5-0.9
		c-0.3-0.6-0.7-1.1-1.1-1.7c-0.4-0.6-0.9-1.1-1.3-1.6c-0.1-0.2-0.3-0.3-0.4-0.4c0,0,0,0,0,0c-0.1-0.1-0.2-0.2-0.2-0.2
		c-0.1-0.1-0.2-0.2-0.3-0.3c0,0-0.1-0.1-0.1-0.1c-0.2-0.2-0.5-0.4-0.7-0.6c0,0-0.1-0.1-0.1-0.1c-0.2-0.1-0.3-0.3-0.5-0.4
		c-0.1-0.1-0.2-0.1-0.2-0.2c-0.1-0.1-0.3-0.2-0.5-0.4c0,0-0.1,0-0.1-0.1c-0.1-0.1-0.2-0.1-0.2-0.2c-0.2-0.2-0.5-0.3-0.7-0.4
		c0,0-0.1,0-0.1-0.1c-0.3-0.2-0.5-0.3-0.8-0.5c-0.2-0.1-0.4-0.3-0.7-0.4c-0.1-0.1-0.3-0.1-0.4-0.2c-0.3-0.2-0.6-0.3-1-0.4
		c-0.1-0.1-0.2-0.1-0.4-0.2c-0.2-0.1-0.4-0.1-0.6-0.2c-0.1,0-0.1,0-0.2-0.1c-0.2-0.1-0.4-0.2-0.6-0.2c0,0,0,0,0,0
		c-0.2-0.1-0.4-0.1-0.6-0.2c-0.3-0.1-0.6-0.2-0.9-0.2c0,0,0,0,0,0c0,0-0.1,0-0.1,0c-0.3-0.1-0.7-0.2-1-0.2c0,0-0.1,0-0.1,0
		c-0.1,0-0.3,0-0.4-0.1c-0.1,0-0.3,0-0.4-0.1c-0.2,0-0.4-0.1-0.6-0.1c-0.2,0-0.5,0-0.7-0.1c-0.2,0-0.3,0-0.5,0c-0.4,0-0.7,0-1.1,0
		s-0.7,0-1.1,0c-0.2,0-0.3,0-0.5,0c-0.2,0-0.5,0-0.7,0.1c-0.2,0-0.4,0-0.6,0.1c-0.1,0-0.3,0-0.4,0.1c-0.1,0-0.3,0-0.4,0.1
		c0,0-0.1,0-0.1,0c-0.4,0.1-0.7,0.1-1,0.2c0,0-0.1,0-0.1,0c0,0,0,0,0,0c-0.3,0.1-0.6,0.2-0.9,0.2c-0.1,0-0.2,0.1-0.3,0.1
		c-0.3,0.1-0.5,0.2-0.8,0.3c-0.1,0-0.2,0.1-0.3,0.1c-0.4,0.1-0.7,0.3-1.1,0.4c-0.1,0-0.1,0.1-0.2,0.1c-0.3,0.1-0.6,0.2-0.8,0.4
		c0,0,0,0,0,0c-0.1,0-0.1,0.1-0.2,0.1c0,0,0,0,0,0c-0.1,0.1-0.3,0.1-0.4,0.2c-0.1,0.1-0.3,0.2-0.4,0.2c-0.1,0-0.1,0.1-0.2,0.1
		c-0.3,0.2-0.6,0.4-0.9,0.6c-0.3,0.2-0.7,0.5-1,0.7c-0.3,0.2-0.6,0.5-0.9,0.8c-0.2,0.2-0.5,0.4-0.7,0.6c0,0-0.1,0-0.1,0.1
		c-0.1,0.1-0.2,0.2-0.4,0.3c-0.1,0.1-0.2,0.2-0.3,0.4c-0.2,0.1-0.3,0.3-0.4,0.4c0,0,0,0,0,0c-0.5,0.5-0.9,1-1.3,1.6
		c-0.2,0.2-0.3,0.4-0.5,0.7c-0.1,0.2-0.2,0.4-0.4,0.6c0,0.1-0.1,0.1-0.1,0.2c-0.1,0.2-0.2,0.4-0.4,0.6c-0.1,0.2-0.3,0.5-0.4,0.7
		c-0.1,0.2-0.2,0.5-0.4,0.7c-0.1,0.2-0.2,0.5-0.3,0.8c-0.1,0.3-0.2,0.5-0.3,0.8c-0.1,0.3-0.2,0.5-0.3,0.8c-0.1,0.3-0.2,0.5-0.2,0.8
		c-0.1,0.4-0.2,0.8-0.3,1.2c0,0.2-0.1,0.4-0.1,0.6c0,0.2-0.1,0.4-0.1,0.6c0,0.3-0.1,0.6-0.1,0.8c0,0.3-0.1,0.6-0.1,0.9
		c0,0.6-0.1,1.1-0.1,1.7c0,0.2,0,0.5,0,0.7c0,0.2,0,0.5,0,0.7c0,0.2,0,0.5,0.1,0.7c0,0.3,0.1,0.7,0.1,1c0.1,0.3,0.1,0.7,0.2,1
		c0,0.1,0,0.2,0.1,0.3c0,0.1,0,0.2,0.1,0.3c0,0.2,0.1,0.4,0.2,0.7c0,0.2,0.1,0.4,0.2,0.6c0,0,0,0.1,0,0.1c0,0.1,0.1,0.3,0.1,0.4
		c0,0.1,0,0.2,0.1,0.2c0.1,0.3,0.2,0.6,0.4,0.9c0,0,0,0,0,0c0.1,0.3,0.2,0.6,0.4,0.9c0.1,0.3,0.3,0.7,0.5,1c0.1,0.2,0.2,0.3,0.3,0.5
		c0.1,0.2,0.2,0.3,0.3,0.5c0.2,0.3,0.4,0.6,0.6,0.9c0.2,0.3,0.4,0.6,0.6,0.9c0.2,0.3,0.5,0.6,0.7,0.9
		c-15.8,23.2-25.4,52.2-25.9,83.9c-20,14.9-38.7,31.3-56.2,49.1c3.6-53.9,14.6-109.5,21.6-162.7c32.9-51.5,81-92.4,138-116.3
		c3.1,5.4,8,9.7,13.8,12.1c3.3,1.4,6.9,2.1,10.7,2.1c15.7,0,28.5-12.8,28.5-28.5c0-15.8-12.8-28.5-28.5-28.5s-28.5,12.7-28.5,28.5
		c0,0.2,0,0.4,0,0.5c-2.3,0.6-4.5,1.2-6.8,1.9c-12.2,3.5-24.2,7.7-35.7,12.7S695,233,684.3,239.3c0-0.6,0.1-1.2,0.1-1.8
		c0-0.6,0.1-1.2,0.1-1.8c0,0,0-0.1,0-0.1c0-0.5,0.1-1,0.1-1.5c0-0.1,0-0.2,0-0.4c0-0.1,0-0.1,0-0.2c0,0,0-0.1,0-0.1
		c0-0.4,0.1-0.8,0.1-1.2c0.1-0.6,0.1-1.2,0.2-1.8c0.1-0.6,0.2-1.2,0.3-1.8c0.1-0.7,0.2-1.4,0.4-2.1c0.1-0.4,0.1-0.9,0.2-1.3
		c0.1-0.6,0.2-1.2,0.4-1.8c0.2-1.1,0.5-2.3,0.8-3.4c0.1-0.6,0.3-1.1,0.4-1.7c0.3-1.1,0.6-2.2,0.9-3.3c0.3-1.1,0.7-2.2,1-3.3
		c1.5,0.4,3.1,0.7,4.8,0.7c0.3,0,0.7,0,1,0c1-0.1,1.9-0.2,2.8-0.4c0.3-0.1,0.6-0.1,0.9-0.2c0.3-0.1,0.6-0.2,0.9-0.3
		c0.2,0,0.4-0.1,0.5-0.2c0,0,0.1,0,0.1,0c0,0,0.1,0,0.1,0c0,0,0.1,0,0.1,0c0,0,0,0,0.1,0c0.2-0.1,0.5-0.2,0.7-0.3
		c0.1,0,0.1,0,0.2-0.1c0.2-0.1,0.4-0.2,0.6-0.3c0,0,0.1,0,0.1-0.1c0.3-0.2,0.7-0.3,1-0.5c0,0,0,0,0,0c0.4-0.2,0.7-0.4,1.1-0.7
		c0.1-0.1,0.2-0.2,0.3-0.2c0.1-0.1,0.2-0.2,0.3-0.2c0,0,0,0,0.1,0c0,0,0,0,0.1,0c0.2-0.2,0.5-0.4,0.8-0.6c0.1-0.1,0.3-0.2,0.4-0.3
		c0.1-0.1,0.3-0.2,0.4-0.4c0.5-0.4,0.9-0.8,1.3-1.3c0.4-0.5,0.8-0.9,1.2-1.4c0.2-0.2,0.4-0.5,0.5-0.7c0.3-0.5,0.6-1,1-1.6
		c0.1-0.3,0.3-0.5,0.4-0.8c0.1-0.2,0.2-0.4,0.3-0.7c0,0,0,0,0,0c0.1-0.2,0.2-0.4,0.2-0.6c0.1-0.2,0.2-0.4,0.2-0.6
		c0.1-0.2,0.2-0.4,0.2-0.7c0.1-0.2,0.1-0.5,0.2-0.7c0-0.1,0.1-0.2,0.1-0.3c0-0.1,0-0.2,0.1-0.3c0.1-0.2,0.1-0.5,0.1-0.7
		c0.1-0.5,0.2-0.9,0.2-1.4c0-0.2,0-0.5,0.1-0.7c0-0.2,0-0.5,0-0.7c0-0.2,0-0.5,0-0.7c0-0.2,0-0.5,0-0.7s0-0.5,0-0.7c0,0,0,0,0,0
		c0,0,0-0.1,0-0.1c0-0.2,0-0.4-0.1-0.5c-0.1-0.5-0.1-0.9-0.2-1.4c0-0.2-0.1-0.5-0.1-0.7c0-0.1,0-0.2-0.1-0.3c0-0.1,0-0.2-0.1-0.3
		c-0.1-0.2-0.1-0.5-0.2-0.7c-0.1-0.2-0.1-0.4-0.2-0.7c-0.2-0.4-0.3-0.9-0.5-1.3c-0.1-0.2-0.2-0.4-0.3-0.6c-0.1-0.3-0.3-0.5-0.4-0.8
		c-0.3-0.5-0.6-1.1-1-1.6c-0.2-0.3-0.4-0.5-0.5-0.8c-0.4-0.5-0.8-1-1.2-1.4c-0.4-0.5-0.9-0.9-1.4-1.4c0,0-0.1-0.1-0.1-0.1
		c0,0,0,0,0,0c-0.1-0.1-0.2-0.2-0.3-0.2c-0.1-0.1-0.2-0.2-0.3-0.2c-0.3-0.2-0.5-0.4-0.8-0.6c0,0,0,0-0.1,0c-0.1-0.1-0.2-0.2-0.3-0.2
		c-0.1-0.1-0.2-0.2-0.3-0.2c-0.3-0.2-0.6-0.4-0.8-0.5c-0.3-0.2-0.6-0.3-0.9-0.5c-0.3-0.1-0.6-0.3-0.9-0.4c-0.2-0.1-0.5-0.2-0.8-0.3
		c0,0-0.1,0-0.1-0.1c0,0,0,0,0,0c-0.3-0.1-0.5-0.2-0.8-0.3c-0.1,0-0.1,0-0.2-0.1c-0.2-0.1-0.4-0.1-0.6-0.2c0,0,0,0-0.1,0
		c-0.1,0-0.3-0.1-0.5-0.1c0,0,0,0-0.1,0c-0.2-0.1-0.5-0.1-0.7-0.2c-0.2,0-0.3-0.1-0.5-0.1c-0.2,0-0.3-0.1-0.5-0.1
		c-0.1,0-0.3,0-0.4-0.1h0c-0.2,0-0.4,0-0.6-0.1c-0.3,0-0.7-0.1-1-0.1c-0.3,0-0.7,0-1,0c-10.5,0-19,8.5-19,19c0,4.6,1.7,8.8,4.5,12.1
		c-9,13.4-14.8,29.5-16.2,47c-11.2,7.9-21.9,16.5-31.9,25.7c1.3-29.5-0.3-57.5-7-83.3c11.5-5.1,19.6-16.6,19.6-30.1
		c0-3.1-0.5-6.2-1.3-9c-2-6.9-6.1-12.9-11.7-17.1c-5.5-4.2-12.5-6.8-20-6.8c-13.3,0-24.8,7.9-30,19.3c-1.9,4.1-2.9,8.8-2.9,13.6
		c0,17.4,13.6,31.7,30.8,32.8c4,18.6,4.9,37.9,3.6,57.8c-3.7-2.7-7.4-5.3-11.2-7.8c-1.5-1-3-2-4.6-3c-1.3-0.9-2.7-1.7-4-2.5
		c-1.3-0.8-2.5-1.5-3.8-2.3c-0.2-0.1-0.4-0.2-0.5-0.3c-1.1-0.6-2.2-1.3-3.3-1.9c-0.3-0.2-0.7-0.4-1-0.6c-1.2-0.7-2.5-1.4-3.8-2.1
		c-1.6-0.9-3.2-1.8-4.8-2.6s-3.2-1.7-4.9-2.5c-0.8-0.4-1.6-0.8-2.5-1.2s-1.6-0.8-2.5-1.2c-0.8-0.4-1.6-0.8-2.4-1.1
		c-0.1,0-0.1-0.1-0.2-0.1c-0.8-0.4-1.6-0.8-2.4-1.1c-0.9-0.4-1.8-0.8-2.7-1.2c-0.1-0.1-0.3-0.1-0.4-0.2c-0.6-0.3-1.2-0.5-1.8-0.8
		c-0.9-0.4-1.8-0.8-2.7-1.2c-0.8-0.4-1.7-0.7-2.5-1.1c-0.8-0.4-1.7-0.7-2.6-1c-0.8-0.4-1.7-0.7-2.6-1c-0.9-0.3-1.7-0.7-2.6-1
		c-1.3-0.5-2.6-1-3.9-1.5c-1.3-0.5-2.6-1-3.9-1.4c0.2-1.2,0.3-2.3,0.3-3.5c0-12.8-10.3-23.1-23.1-23.1s-23.1,10.3-23.1,23.1
		c0,12.8,10.3,23.1,23.1,23.1c7.3,0,13.8-3.5,18-8.8c1.1,0.6,2.3,1.2,3.4,1.8c0.8,0.4,1.6,0.9,2.4,1.3c0.9,0.5,1.8,1,2.6,1.5
		c0.9,0.5,1.7,1,2.6,1.5c1,0.6,2,1.2,2.9,1.8c1.8,1.1,3.6,2.3,5.4,3.4c0.9,0.6,1.8,1.2,2.7,1.8c1.8,1.2,3.5,2.4,5.3,3.6
		c0.9,0.6,1.7,1.2,2.6,1.9c1.7,1.3,3.4,2.5,5.1,3.8c1,0.8,2.1,1.6,3.1,2.5c0.9,0.7,1.8,1.5,2.7,2.2c0.2,0.2,0.5,0.4,0.7,0.6
		c0.8,0.6,1.6,1.3,2.4,2c1.1,1,2.2,1.9,3.3,2.9c1.1,1,2.2,1.9,3.3,2.9c0.2,0.2,0.4,0.4,0.6,0.6c0.3,0.3,0.6,0.5,0.9,0.8
		c0.8,0.7,1.5,1.4,2.3,2.1c1,1,2,1.9,3,2.9c0.1,0.1,0.2,0.2,0.3,0.3c0.7,0.7,1.3,1.3,2,2c0.5,0.5,1,1,1.5,1.5
		c1.5,1.6,3.1,3.2,4.5,4.8c0.5,0.5,1,1.1,1.5,1.7c0.3,0.3,0.6,0.6,0.8,0.9c0.3,0.3,0.6,0.6,0.8,0.9c1.4,1.5,2.7,3.1,4,4.6
		c0.8,0.9,1.5,1.8,2.2,2.7c0,0,0,0.1,0.1,0.1c0.5,0.6,0.9,1.1,1.4,1.7c0.5,0.6,0.9,1.1,1.3,1.7c-0.2,1.1-0.4,2.3-0.6,3.4
		c-0.1,0.4-0.1,0.8-0.2,1.1c-0.1,0.4-0.2,0.9-0.2,1.3c-0.3,1.5-0.6,3.1-0.9,4.6c-0.4,1.8-0.7,3.5-1.1,5.3c-0.4,1.8-0.8,3.6-1.2,5.3
		c-0.5,2.4-1.1,4.8-1.7,7.2c-0.3,1.2-0.6,2.4-0.9,3.6c-0.6,2.4-1.2,4.8-1.8,7.2c-0.5,1.8-0.9,3.6-1.4,5.4c-0.2,0.9-0.5,1.8-0.7,2.7
		c-0.2,0.9-0.5,1.8-0.7,2.7c-0.7,2.4-1.3,4.9-2,7.3c-5.5,19.6-11.8,39.7-18.3,60.2c-35.2-44.4-78-82.4-126.4-112.3
		c0.4-4.3,0.7-8.7,0.7-13.1c0-11.9-1.5-23.4-4.3-34.3c4.8-3.3,7.9-8.8,7.9-15.1c0-0.4,0-0.7,0-1.1v0c0-0.3,0-0.5-0.1-0.8
		c0-0.3-0.1-0.6-0.1-0.9c-0.1-0.6-0.2-1.2-0.4-1.8c-0.1-0.3-0.2-0.6-0.2-0.9v0c-0.2-0.6-0.4-1.1-0.6-1.7c-0.9-2.2-2.3-4.2-3.9-5.8
		c-0.4-0.4-0.8-0.8-1.3-1.2c0,0,0,0,0,0c-0.2-0.2-0.5-0.4-0.7-0.5c-0.5-0.4-1-0.7-1.5-1c-0.2-0.2-0.5-0.3-0.8-0.4c0,0,0,0,0,0
		c-0.5-0.3-1-0.5-1.6-0.8c-0.5-0.2-1.1-0.4-1.7-0.6c-0.3-0.1-0.6-0.2-0.9-0.2c-0.6-0.2-1.2-0.3-1.8-0.4c-0.1,0-0.2,0-0.3-0.1
		c-0.1,0-0.2,0-0.4,0c-0.1,0-0.1,0-0.2,0c-0.1,0-0.1,0-0.2,0c-0.1,0-0.2,0-0.2,0c-0.1,0-0.1,0-0.2,0c-0.2,0-0.4,0-0.6,0
		c-0.3,0-0.5,0-0.8,0c-0.6,0-1.3,0-1.9,0.1c-0.3,0-0.5,0.1-0.8,0.1c-0.1,0-0.2,0-0.4,0.1s-0.2,0-0.4,0.1c0,0,0,0,0,0c0,0,0,0,0,0
		c-0.2,0-0.5,0.1-0.7,0.2c-0.2,0-0.4,0.1-0.6,0.1c-0.2,0-0.3,0.1-0.5,0.1c-0.2,0.1-0.5,0.2-0.7,0.2c-0.2,0.1-0.5,0.2-0.7,0.3
		c-0.2,0.1-0.4,0.1-0.5,0.2c-1,0.4-1.9,0.9-2.7,1.5c-0.2,0.1-0.3,0.2-0.5,0.3c-0.2,0.2-0.5,0.4-0.8,0.6c-0.2,0.2-0.4,0.3-0.6,0.5
		c-0.2,0.2-0.4,0.3-0.6,0.5c-0.2,0.2-0.4,0.4-0.6,0.5c-0.4,0.4-0.8,0.8-1.2,1.3c-0.2,0.2-0.4,0.5-0.5,0.7c-0.4,0.5-0.7,1-1,1.5
		c-0.3,0.5-0.6,1-0.8,1.6c-0.1,0.3-0.2,0.5-0.4,0.8c-0.2,0.5-0.4,1.1-0.6,1.7v0c-0.1,0.3-0.2,0.6-0.2,0.9c-0.1,0.6-0.3,1.2-0.4,1.8
		c-0.1,0.6-0.1,1.2-0.2,1.9c0,0.3,0,0.6,0,0.9c0,9.1,6.6,16.6,15.2,18.1c0,0.4,0,0.7,0.1,1.1c0,0.4,0,0.7,0,1.1
		c0,10.4-1.2,20.4-3.4,30.1c-1.7-0.9-3.4-1.9-5.1-2.8c-1.7-0.9-3.4-1.8-5.2-2.7c-1.4-0.8-2.9-1.5-4.3-2.2c-0.2-0.1-0.3-0.2-0.5-0.2
		c-0.4-0.2-0.9-0.4-1.3-0.7c-1.4-0.7-2.9-1.5-4.4-2.2c-1.8-0.9-3.5-1.7-5.3-2.5c-3.5-1.7-7.1-3.3-10.6-4.9c-1.8-0.8-3.6-1.6-5.4-2.4
		c-3,4.7-5.9,9.5-8.7,14.4c34.7,19.8,66.8,43.6,95.6,71c-27.4,28.7-63.4,49-103.9,56.8c-3.2-10.1-11.7-17.8-22.3-19.6
		c-1.5-0.3-3.1-0.4-4.7-0.4c-15.7,0-28.5,12.8-28.5,28.5s12.8,28.5,28.5,28.5c2.9,0,5.7-0.4,8.4-1.3c10.1-3.1,17.8-11.7,19.6-22.3
		c47.7-1,91.1-19.2,124.4-48.5c24.8,26.7,46.6,56.1,65,87.8c-0.5,1.8-1.1,3.6-1.6,5.4c-0.1,0.4-0.2,0.8-0.3,1.2
		c-0.3,0.9-0.5,1.8-0.8,2.7c-0.4,1.3-0.8,2.6-1.1,3.9c-0.3,1.1-0.6,2.1-0.9,3.2c-0.3,1.1-0.6,2.1-0.9,3.2c-0.1,0.3-0.2,0.6-0.2,0.8
		c-0.1,0.4-0.2,0.8-0.3,1.1c-0.5,1.7-0.9,3.3-1.4,5c-0.8,3-1.6,6-2.4,9c-0.4,1.5-0.8,3-1.2,4.5c-0.4,1.3-0.7,2.6-1,3.9
		c-0.3,1.3-0.7,2.6-1,4c-0.7,2.6-1.3,5.3-2,8c-0.3,1.3-0.6,2.6-1,4c-0.3,1.3-0.6,2.7-0.9,4c-0.4,1.6-0.7,3.1-1.1,4.7
		c-0.2,1.1-0.5,2.2-0.7,3.3l0,0c-0.6-0.7-1.1-1.3-1.7-2c-0.6-0.7-1.2-1.3-1.8-2c-0.5-0.6-1-1.1-1.6-1.7c-0.7-0.7-1.3-1.5-2-2.2
		c-1.2-1.3-2.5-2.5-3.7-3.8c-0.9-0.8-1.7-1.7-2.6-2.5c-0.3-0.3-0.6-0.6-0.9-0.9c-0.2-0.2-0.5-0.5-0.8-0.7c-0.4-0.4-0.9-0.8-1.3-1.2
		c-0.4-0.3-0.7-0.6-1-1c-0.9-0.8-1.8-1.6-2.7-2.4c-0.2-0.2-0.4-0.4-0.7-0.6c-0.5-0.4-1-0.9-1.5-1.3c-0.2-0.2-0.4-0.3-0.6-0.5
		c-0.4-0.3-0.7-0.6-1.1-0.9c-0.9-0.7-1.8-1.5-2.7-2.2c-0.2-0.1-0.4-0.3-0.6-0.5c-1-0.8-2-1.6-3.1-2.4c-1.1-0.8-2.1-1.6-3.2-2.4
		c-0.2-0.2-0.4-0.3-0.7-0.5c-1-0.8-2.1-1.5-3.1-2.2c-0.8-0.5-1.5-1.1-2.3-1.6c-0.7-0.5-1.4-0.9-2.1-1.4c-0.7-0.5-1.5-1-2.2-1.4
		c-0.7-0.5-1.5-1-2.2-1.4c0,0-0.1-0.1-0.1-0.1c-0.7-0.4-1.4-0.9-2.1-1.3c-0.8-0.5-1.5-0.9-2.3-1.4c-0.8-0.4-1.5-0.9-2.3-1.3
		c-0.8-0.4-1.5-0.9-2.3-1.3c0,0,0,0,0,0c-1.1-0.6-2.2-1.2-3.3-1.8c-0.1-0.1-0.3-0.2-0.4-0.2c-0.5-0.3-1.1-0.6-1.6-0.9
		c-0.6-0.3-1.2-0.6-1.8-0.9c-0.8-0.4-1.6-0.8-2.4-1.2c-0.8-0.4-1.6-0.8-2.4-1.1c0.3-1.7,0.5-3.3,0.5-5c0-15.8-12.8-28.5-28.5-28.5
		c-3.9,0-7.7,0.8-11.1,2.2c-0.8,0.4-1.7,0.8-2.5,1.2c-0.2,0.1-0.5,0.3-0.8,0.4c-0.2,0.1-0.5,0.3-0.7,0.4c0,0-0.1,0-0.1,0.1
		c0,0-0.1,0-0.1,0.1c-0.2,0.1-0.4,0.2-0.6,0.4c-0.1,0-0.1,0.1-0.2,0.1c-0.3,0.2-0.6,0.4-0.9,0.6c-0.1,0.1-0.2,0.2-0.3,0.2
		c-0.4,0.3-0.7,0.6-1,0.8l0,0c-0.3,0.2-0.5,0.5-0.8,0.7c-0.4,0.3-0.7,0.7-1.1,1c-0.6,0.6-1.3,1.3-1.8,2c-0.3,0.4-0.6,0.7-0.9,1.1
		c-0.3,0.4-0.5,0.7-0.8,1.1c-0.3,0.4-0.5,0.8-0.7,1.2c-0.2,0.3-0.4,0.7-0.6,1c0,0,0,0,0,0c0,0,0,0.1-0.1,0.1c0,0,0,0,0,0
		c0,0,0,0,0,0c-0.2,0.4-0.4,0.8-0.6,1.2c-0.2,0.4-0.4,0.8-0.6,1.3c-0.4,0.8-0.7,1.7-1,2.6c0,0,0,0,0,0.1c-0.1,0.4-0.3,0.9-0.4,1.3
		c-0.2,0.9-0.4,1.8-0.6,2.8c-0.1,0.5-0.1,0.9-0.2,1.4c-0.1,1-0.2,1.9-0.2,2.9s0,2,0.2,2.9c0.1,0.5,0.1,1,0.2,1.4
		c0.1,0.5,0.1,0.9,0.2,1.4c0.1,0.5,0.2,0.9,0.3,1.4c0.1,0.5,0.2,0.9,0.4,1.3c0,0,0,0,0,0.1c0.1,0.4,0.3,0.9,0.4,1.3
		c0.2,0.4,0.3,0.9,0.5,1.3s0.4,0.8,0.6,1.3c0.2,0.4,0.4,0.8,0.6,1.2c0.4,0.8,0.9,1.6,1.4,2.3c0.2,0.4,0.5,0.8,0.8,1.1
		c0.3,0.4,0.6,0.7,0.9,1.1c0.6,0.7,1.2,1.4,1.8,2c0.7,0.6,1.3,1.3,2,1.8c0.7,0.6,1.4,1.1,2.2,1.6c0.4,0.2,0.8,0.5,1.2,0.7
		c0.3,0.2,0.6,0.4,1,0.6c0.3,0.1,0.5,0.3,0.8,0.4c0.3,0.1,0.6,0.3,0.9,0.4c0.3,0.2,0.7,0.3,1,0.4c3.4,1.4,7.2,2.2,11.1,2.2
		c8.6,0,16.3-3.9,21.5-10c28.9,22.1,51.5,51.9,64.9,86.4c-2.5,18.3-4,36.8-4.3,55.5c20.8,5.7,42.6,8.7,65.2,8.7
		c9.7,0,19.3-0.6,28.7-1.7c-10.5-24.5-15.9-50.6-18.1-77.7c34.8-50.7,78.9-94.5,129.9-129c17.3,25.1,43.8,43.5,74.5,50.2
		c0.2,6.4,3.4,12.1,8.1,15.8c1.8,1.3,3.7,2.4,5.9,3.2c2.1,0.7,4.4,1.2,6.8,1.2c11.5,0,20.9-9.4,20.9-20.9c0-11.2-8.8-20.2-19.8-20.8
		c-0.4,0-0.8-0.1-1.1-0.1c-0.3,0-0.5,0-0.8,0c-0.6,0-1.1,0.1-1.6,0.1c0,0,0,0,0,0c-0.2,0-0.5,0.1-0.7,0.1c-0.2,0-0.4,0.1-0.7,0.1
		c0,0,0,0-0.1,0c0,0-0.1,0-0.1,0c-0.2,0-0.5,0.1-0.7,0.2c-0.5,0.1-1,0.2-1.5,0.4c-0.7,0.2-1.3,0.5-1.9,0.7c-0.4,0.2-0.8,0.4-1.2,0.6
		c-0.5,0.3-1.1,0.6-1.6,0.9c0,0,0,0,0,0c-0.1,0.1-0.3,0.2-0.4,0.3c-0.2,0.1-0.3,0.2-0.5,0.3c0,0,0,0,0,0c-0.2,0.2-0.5,0.3-0.7,0.5
		c-0.1,0-0.1,0.1-0.2,0.2c-0.4,0.3-0.7,0.6-1,0.9c-0.3,0.2-0.5,0.5-0.8,0.7c-0.1,0.1-0.2,0.2-0.3,0.3c-0.2,0.2-0.5,0.5-0.7,0.7
		c-0.1,0.1-0.2,0.3-0.3,0.4c-0.2,0.2-0.4,0.5-0.6,0.8c0,0,0,0,0,0c-0.2,0.3-0.5,0.7-0.7,1c-0.1,0.1-0.1,0.2-0.2,0.3
		c0,0,0,0.1-0.1,0.1c0,0-0.1,0.1-0.1,0.2c-0.2,0.2-0.3,0.5-0.4,0.7c-24.2-10.7-44.3-29.1-57.2-52c19.1-11.7,39.1-22,59.8-30.9
		C820,399.1,829.2,404.8,839.8,405.5z M836.2,354c0.4,0,0.9-0.1,1.3-0.1c9.1,0,16.5,7.4,16.5,16.5c0,8.4-6.2,15.3-14.3,16.4
		c-0.7,0.1-1.5,0.2-2.2,0.2c-9.2,0-16.6-7.4-16.6-16.6C821,361.8,827.7,354.7,836.2,354z M702.1,343.8c5.2,0,9.5,4.2,9.5,9.5
		c0,5.2-4.2,9.4-9.5,9.4s-9.5-4.2-9.5-9.4C692.7,348.1,696.9,343.8,702.1,343.8z M788.5,194.8c8.5,0,15.4,6.9,15.4,15.4
		c0,8.5-6.9,15.4-15.4,15.4s-15.4-6.9-15.4-15.4C773.1,201.7,780,194.8,788.5,194.8z M692.7,184.8c4.9,0,8.9,4,8.9,8.9
		c0,4.9-4,8.8-8.9,8.8c-4.9,0-8.9-4-8.9-8.8C683.8,188.8,687.8,184.8,692.7,184.8z M596.3,163.5c0-4.8,1.8-9.1,4.9-12.4
		c3.3-3.6,8.1-5.9,13.5-5.9c6.5,0,12.2,3.4,15.4,8.5c0.9,1.4,1.6,3,2.1,4.6c0.5,1.6,0.8,3.4,0.8,5.2c0,10.1-8.2,18.3-18.3,18.3
		C604.5,181.8,596.3,173.6,596.3,163.5z M516.5,222c-6.2,0-11.2-5-11.2-11.2c0-6.2,5-11.2,11.2-11.2c6.2,0,11.2,5,11.2,11.2
		C527.7,217,522.7,222,516.5,222z M437.8,241c-4.9,0-8.9-4-8.9-8.8c0-4.9,4-8.9,8.9-8.9c4.9,0,8.9,4,8.9,8.9
		C446.7,237,442.7,241,437.8,241z M349.6,424.9c-2.6,2.5-6.1,4.1-10,4.1c-7.8,0-14.2-6.4-14.2-14.2c0-7.8,6.3-14.2,14.2-14.2
		c3.2,0,6.1,1.1,8.4,2.8c3.5,2.6,5.8,6.8,5.8,11.4C353.8,418.8,352.2,422.3,349.6,424.9z M449,487.5c-7.5,0-13.6-6.1-13.6-13.6
		c0-7.5,6.1-13.6,13.6-13.6c7.5,0,13.6,6.1,13.6,13.6C462.6,481.5,456.6,487.5,449,487.5z M827.9,473.4c0.1,0,0.1,0,0.2,0
		c5.2,0,9.5,4.2,9.5,9.5c0,5.2-4.2,9.4-9.5,9.4c-2.4,0-4.6-0.9-6.3-2.4c-2-1.7-3.2-4.3-3.2-7.1C818.6,477.7,822.8,473.5,827.9,473.4
		z"/>
	<path class="st2" d="M701.5,193.7c0,4.9-4,8.8-8.9,8.8c-4.9,0-8.9-4-8.9-8.8c0-4.9,4-8.9,8.9-8.9
		C697.6,184.8,701.5,188.8,701.5,193.7z"/>
	<path class="st2" d="M462.6,474c0,7.5-6.1,13.6-13.6,13.6c-7.5,0-13.6-6.1-13.6-13.6c0-7.5,6.1-13.6,13.6-13.6
		C456.6,460.3,462.6,466.5,462.6,474z"/>
	<path class="st2" d="M353.8,414.8c0,3.9-1.6,7.5-4.2,10.1c-2.6,2.5-6.1,4.1-10,4.1c-7.8,0-14.2-6.4-14.2-14.2
		c0-7.8,6.3-14.2,14.2-14.2c3.2,0,6.1,1.1,8.4,2.8C351.6,406,353.8,410.2,353.8,414.8z"/>
	<path class="st2" d="M527.7,210.8c0,6.2-5,11.2-11.2,11.2c-6.2,0-11.2-5-11.2-11.2c0-6.2,5-11.2,11.2-11.2
		C522.7,199.6,527.7,204.6,527.7,210.8z"/>
	<path class="st2" d="M446.7,232.1c0,4.9-4,8.8-8.9,8.8c-4.9,0-8.9-4-8.9-8.8c0-4.9,4-8.9,8.9-8.9
		C442.7,223.2,446.7,227.2,446.7,232.1z"/>
	<path class="st2" d="M711.6,353.3c0,5.2-4.2,9.4-9.5,9.4s-9.5-4.2-9.5-9.4c0-5.2,4.2-9.5,9.5-9.5S711.6,348.1,711.6,353.3z"/>
	<path class="st2" d="M837.6,482.8c0,5.2-4.2,9.4-9.5,9.4c-2.4,0-4.6-0.9-6.3-2.4c-2-1.7-3.2-4.3-3.2-7.1c0-5.2,4.1-9.4,9.3-9.5
		c0.1,0,0.1,0,0.2,0C833.3,473.4,837.6,477.6,837.6,482.8z"/>
	<path class="st2" d="M854.1,370.5c0,8.4-6.2,15.3-14.3,16.4c-0.7,0.1-1.5,0.2-2.2,0.2c-9.2,0-16.6-7.4-16.6-16.6
		c0-8.7,6.7-15.8,15.2-16.5c0.4,0,0.9-0.1,1.3-0.1C846.7,353.9,854.1,361.3,854.1,370.5z"/>
	<path class="st2" d="M803.9,210.2c0,8.5-6.9,15.4-15.4,15.4s-15.4-6.9-15.4-15.4c0-8.5,6.9-15.4,15.4-15.4S803.9,201.7,803.9,210.2
		z"/>
	<path class="st2" d="M632.9,163.5c0,10.1-8.2,18.3-18.3,18.3c-10.1,0-18.3-8.2-18.3-18.3c0-4.8,1.8-9.1,4.9-12.4
		c3.3-3.6,8.1-5.9,13.5-5.9c6.5,0,12.2,3.4,15.4,8.5c0.9,1.4,1.6,3,2.1,4.6C632.7,159.9,632.9,161.7,632.9,163.5z"/>
</g>
</svg>
