<?xml version="1.0" encoding="utf-8"?>
<!-- Generator: Adobe Illustrator 19.1.0, SVG Export Plug-In . SVG Version: 6.00 Build 0)  -->
<!DOCTYPE svg PUBLIC "-//W3C//DTD SVG 1.1//EN" "http://www.w3.org/Graphics/SVG/1.1/DTD/svg11.dtd">
<svg version="1.1" id="fractals" xmlns="http://www.w3.org/2000/svg" xmlns:xlink="http://www.w3.org/1999/xlink" x="0px" y="0px"
	 viewBox="144 72 900 650" style="enable-background:new 144 72 900 650;" xml:space="preserve">
<style type="text/css">
	.st0{fill:#BD4C64;}
	.st1{fill:none;}
	.st2{fill:#2F8E7C;}
	.st3{fill:#E8E7E5;}
	.st4{fill:#FFE11A;}
</style>
<g id="XMLID_1_">
	<g>
		<rect x="144" y="72" class="st0" width="900" height="650"/>
	</g>
</g>
<path class="st1" d="M371.7,568.3c-9.1,0-16.4,7.3-16.4,16.4c0,9,7.3,16.4,16.4,16.4c9.1,0,16.4-7.3,16.4-16.4
	C388,575.6,380.7,568.3,371.7,568.3z"/>
<path class="st1" d="M612.6,715.4c9.1,0,16.4-7.3,16.4-16.4c0-9.1-7.3-16.4-16.4-16.4c-9.1,0-16.4,7.3-16.4,16.4
	C596.2,708.1,603.6,715.4,612.6,715.4z"/>
<path class="st1" d="M647.3,146.4c3.1,0.3,6.1-0.6,8.6-2.6c2.4-2,3.9-4.8,4.2-7.9c0.6-6.4-4.1-12.1-10.5-12.7
	c-6.4-0.6-12.1,4.1-12.7,10.6l-0.6,6.7l-8.8-0.8l0.6-6.7c0.3-3.1-0.6-6.1-2.6-8.6c-2-2.4-4.8-3.9-7.9-4.2
	c-6.4-0.6-12.1,4.1-12.7,10.5c-0.6,6.4,4.1,12.1,10.6,12.7l6.7,0.6l-0.8,8.7c1.6,0.2,3.3,0.4,4.9,0.6l0.8-8.8l8.8,0.8l-0.9,9.3
	c1.6,0.3,3.3,0.6,4.9,0.9l0.9-9.7L647.3,146.4z M641.6,134.1c0.3-3.7,3.6-6.4,7.3-6.1c3.7,0.3,6.4,3.6,6.1,7.3
	c-0.2,1.8-1,3.4-2.4,4.6c-1.4,1.1-3.1,1.7-4.9,1.5l-6.7-0.6L641.6,134.1z M623,132.4l-0.6,6.7l-6.7-0.6c-3.7-0.3-6.4-3.6-6.1-7.3
	c0.3-3.5,3.3-6.1,6.7-6.1c0.2,0,0.4,0,0.6,0c1.8,0.2,3.4,1,4.6,2.4C622.6,128.8,623.1,130.6,623,132.4z"/>
<path class="st1" d="M388.7,546.5l6.1-5.5c-6.2-8.5-11.8-17.4-16.9-26.7l7,30.7C386.2,545.4,387.5,545.9,388.7,546.5z"/>
<path class="st1" d="M490.6,682.6c-9.1,0-16.4,7.3-16.4,16.4c0,9,7.3,16.4,16.4,16.4c9.1,0,16.4-7.3,16.4-16.4
	C507,690,499.7,682.6,490.6,682.6z"/>
<path class="st2" d="M508.1,552.7c-4.9,0-9,4-9,9c0,4.9,4,9,9,9c4.9,0,9-4,9-9C517.1,556.7,513.1,552.7,508.1,552.7z"/>
<path class="st2" d="M536.6,553.1c-4.9,0-9,4-9,9c0,4.9,4,9,9,9c4.9,0,9-4,9-9C545.6,557.1,541.5,553.1,536.6,553.1z"/>
<path class="st2" d="M602.9,313.9c22.5,0,40.7-16,40.7-35.8c0-19.8-18.2-35.8-40.7-35.8c-22.5,0-40.7,16-40.7,35.8
	C562.2,297.8,580.4,313.9,602.9,313.9z M602.9,252.3c17,0,30.8,11.6,30.8,25.8c0,14.2-13.8,25.8-30.8,25.8
	c-17,0-30.8-11.6-30.8-25.8C572.1,263.8,585.9,252.3,602.9,252.3z"/>
<polygon class="st2" points="563.1,570.6 590.3,571.8 590.7,556.3 563.1,555.5 "/>
<polygon class="st2" points="505.3,485.6 498.7,538.9 591.1,544.2 587.1,490.5 "/>
<path class="st2" d="M737.1,520.2c-8.8-2.3-17.7,3-20,11.8c-2.3,8.8,3,17.7,11.8,20c8.8,2.3,17.7-3,20-11.8
	C751.1,531.3,745.8,522.4,737.1,520.2z"/>
<path class="st2" d="M532.7,635.1c13.2,3.4,26.8,5.7,40.8,6.9l-3.2-18.6c23.7,0.5,45.5,0.9,61,1l1.1,0l2.1,15.1
	c37.7-6.2,72.5-21.1,102.3-42.4l-8.5-19.5c-1.9-0.2-3.8-0.5-5.8-1c-18.6-4.8-31-21.3-31.4-39.5l-27.6-14.3l12,80.5l-36.2,13.2
	l-20-146l93.1,29.1c9.1-5.1,20-6.9,30.9-4.1c22.4,5.8,35.9,28.6,30.1,51c-1,3.8-2.5,7.3-4.4,10.6l2.2,10.1
	C813.7,523,839.8,463,839.8,397c0-27.1-4.4-53.1-12.5-77.5l-30.1,2c-4,16.3-20.8,28.5-45.1,28.5c0,0,0,0-0.1,0
	c-9.4,23-28.7,64.6-38,81.8l-35.6-3.4l-29.2-100.6l52.9-92.1l33.2,3.6l10.6,31.2c-27.6,0.3-45,16.3-45,36.1c0,8.8,3.4,16.8,9.6,23
	c-2.7-4.8-4.1-10.1-4.1-15.8c0-20,17.7-36.1,45.6-36.1c24.4,0,41.3,12.3,45.2,28.7l24.1,0.2l-0.3-3.9
	c-27.3-65.8-82.4-117.1-150.7-139.4c-5.7,5.9-13.3,10.3-21.8,12.6l-2.4,13.6l-9.6-0.8l3.1-33.2c-1.6-0.3-3.3-0.6-4.9-0.9l-3.2,33.7
	l-8.8-0.8l3.2-34.2c-1.6-0.2-3.3-0.4-4.9-0.6l-3.2,34.4l-10.6-0.9l0.3-16.8c-6.9-4.6-12.3-10.9-15.6-18.1
	c-87.7,0.7-164.4,47.4-207.3,117.2l18.3,3.5c7.1-11.4,21.5-19.1,40.8-19.1c2.6,0,5.2,0.2,7.6,0.5c-12,19.8-24.7,41.3-32.4,55.1
	c0.8,3.8,1.8,8.1,3,12.8c-15-6-23.8-18.2-23.8-32.2c0-2.4,0.3-4.7,0.8-7l-18.9-5.5c-20.1,35.6-31.5,76.7-31.5,120.5
	c0,17.6,1.9,34.8,5.4,51.4c13.9-3.6,24.3-14.7,24.7-28.2c0.4-13.7-9.4-25.5-23.4-29.8l5.2-15.5c29.6,5.8,51.4,28,50.6,53.8
	c-0.5,17.6-11.5,32.9-27.9,42.1l4.2,19.8l-18.8,3.3c1.1,2.5,2.2,5,3.4,7.5l3.4-0.6l3.1,13.5c5.1,9.3,10.7,18.2,16.9,26.7l80.5-71.7
	c-3.3,17.3-7.5,40.9-12,66.6L421,571.6c11.8,11.7,24.8,22.2,38.8,31.4c8.9-52.9,19.4-112.4,25.1-141.8c27.1,1.4,81,5.2,126.3,8.7
	l20.1,146.6l-156.8-4.6c6,3.3,12.1,6.4,18.4,9.3c13.4,0.5,27.7,0.9,42,1.3L532.7,635.1z M565.6,190.6l119.9,10.3l5.5,25.6
	c-30.1-3.2-85-8.5-133.1-12.8L565.6,190.6z M516.4,340.7c-5.8,0-11.4,0.1-16.6,0.3l3.2,71l-8.3-0.8l-1.9-70c-2.1,0.1-4,0.2-5.9,0.4
	c-11.9,1-16.7,10.3-15.6,20.2c1.1,9.3,5.8,35.1,8,47.9l-24.4-2.3c-7.2-20.5-23-75.5-27.8-97.8c11.8-21.1,43.9-74.2,56.7-94.4
	c46.4,3.5,164.6,14.5,209.6,19.4l-52.9,92.1l29.3,100.8l-53.7-5c-0.1-9.9-0.4-40.8-0.7-53.2c-0.4-14.8-7.6-23.2-19.8-25.1
	c-0.4-0.1-0.8-0.1-1.2-0.2l0.9,76.5l-8.3-0.8l0.4-76.4c-4.4-0.4-10.1-0.8-16.5-1.1l1.5,76.2l-8.3-0.8l-0.1-75.8
	c-5.7-0.3-11.8-0.5-18.1-0.7l1.5,75l-8.3-0.8l-0.1-74.4c-5.1-0.1-10.3-0.2-15.5-0.3l1.4,73.3l-8.3-0.8L516.4,340.7z M520,455.7
	l0.3-34.1l110.4,10.7l-5,31.2L520,455.7z"/>
<path class="st2" d="M541.3,270.1c0-18.5-16-33.5-35.8-33.5c-19.8,0-35.8,15-35.8,33.5c0,18.5,16,33.5,35.8,33.5
	C525.2,303.6,541.3,288.6,541.3,270.1z M505.5,293.7c-14.2,0-25.8-10.6-25.8-23.6c0-13,11.6-23.6,25.8-23.6
	c14.2,0,25.8,10.6,25.8,23.6C531.3,283.1,519.7,293.7,505.5,293.7z"/>
<path class="st3" d="M505.5,783.9h-80.7c-13.4,0-24.3,10.9-24.3,24.3v27.6h129.2v-27.6C529.8,794.7,518.9,783.9,505.5,783.9z"/>
<path class="st3" d="M653.7,783.9H573c-13.4,0-24.3,10.9-24.3,24.3v27.6h129.2v-27.6C677.9,794.7,667.1,783.9,653.7,783.9z"/>
<path class="st4" d="M626.8,144.5l-0.8,8.8c2.9,0.4,5.9,0.8,8.8,1.3l0.9-9.3L626.8,144.5z"/>
<path class="st4" d="M652.6,139.9c1.4-1.1,2.2-2.8,2.4-4.6c0.3-3.7-2.4-7-6.1-7.3c-3.7-0.3-7,2.4-7.3,6.1l-0.6,6.7l6.7,0.6
	C649.5,141.6,651.3,141.1,652.6,139.9z"/>
<path class="st4" d="M616.9,125c-0.2,0-0.4,0-0.6,0c-3.4,0-6.4,2.6-6.7,6.1c-0.3,3.7,2.4,7,6.1,7.3l6.7,0.6l0.6-6.7
	c0.2-1.8-0.4-3.5-1.5-4.9C620.3,126,618.7,125.2,616.9,125z"/>
<path class="st4" d="M621,152.7l0.8-8.7l-6.7-0.6c-6.4-0.6-11.2-6.3-10.6-12.7c0.6-6.4,6.3-11.2,12.7-10.5c3.1,0.3,5.9,1.8,7.9,4.2
	c2,2.4,2.9,5.4,2.6,8.6l-0.6,6.7l8.8,0.8l0.6-6.7c0.6-6.4,6.3-11.2,12.7-10.6c6.4,0.6,11.2,6.3,10.5,12.7c-0.3,3.1-1.8,5.9-4.2,7.9
	c-2.4,2-5.5,2.9-8.6,2.6l-6.7-0.6l-0.9,9.7c10.5,2,20.7,4.6,30.7,7.9c7.3-7.4,11.7-17.2,11.7-27.9c0-23.3-21-42.2-46.8-42.2
	c-25.8,0-46.8,18.9-46.8,42.2c0,5.6,1.2,10.9,3.4,15.8c0.7,0,1.4,0,2.1,0C603.1,151.2,612.2,151.7,621,152.7z"/>
<path class="st3" d="M381.5,267.8l1.1-25.9l30.4-18.6l-22.4-19.8l18.6-12.6l-2.4-33.9c4.5-1.1,7.8-5.1,7.8-10
	c0-5.7-4.6-10.3-10.3-10.3c-5.7,0-10.3,4.6-10.3,10.3c0,4.7,3.2,8.7,7.6,9.9l-0.3,31.3l-23.6,16l23.2,18.3l-26.6,15.2l-0.8,36.9
	l6.3,1.8c1.5-2.7,3.1-5.4,4.8-8.1L381.5,267.8z"/>
<path class="st3" d="M394.8,541l-6.1,5.5c-1.2-0.5-2.5-1-3.8-1.5l-7-30.7c-2.3-4.2-4.4-8.5-6.5-12.9l-35.2,6.3l4.6,48.6
	c-6.9,7.5-11.1,17.4-11.1,28.3c0,23.1,18.7,41.9,41.9,41.9c23.1,0,41.9-18.7,41.9-41.9c0-2.2-0.2-4.2-0.5-6.3l8-6.8
	C411.5,562.1,402.7,551.9,394.8,541z M371.7,601.1c-9.1,0-16.4-7.3-16.4-16.4c0-9.1,7.3-16.4,16.4-16.4c9.1,0,16.4,7.3,16.4,16.4
	C388,593.7,380.7,601.1,371.7,601.1z"/>
<path class="st3" d="M458.4,611.4l16.2,0.5c-5-2.8-9.9-5.8-14.8-8.9C459.3,605.8,458.9,608.6,458.4,611.4z"/>
<path class="st3" d="M342.8,449.6c-19.1-0.6-34.1-14.7-33.6-31.5c0.3-9.9,6-18.5,14.5-23.8L316,379c-20.5,8.4-34.7,25.5-35.3,45.7
	c-0.7,21.4,14.1,40.2,36.1,49.4l1.5,28.7l49.9-8.9c-6.2-14.5-11.1-29.8-14.5-45.6C350.2,449.3,346.6,449.7,342.8,449.6z"/>
<path class="st3" d="M773.5,546.4c5.8-22.4-7.7-45.2-30.1-51c-10.9-2.8-21.8-1-30.9,4.1l-93.1-29.1l20,146l36.2-13.2l-12-80.5
	l27.6,14.3c0.4,18.2,12.8,34.7,31.4,39.5c1.9,0.5,3.8,0.8,5.8,1l8.5,19.5c12.4-8.9,24-18.9,34.6-29.9l-2.2-10.1
	C771,553.8,772.5,550.3,773.5,546.4z M748.9,540.1c-2.3,8.8-11.2,14.1-20,11.8c-8.8-2.3-14.1-11.2-11.8-20
	c2.2-8.8,11.2-14.1,20-11.8C745.8,522.4,751.1,531.3,748.9,540.1z"/>
<path class="st3" d="M797.2,306.4c-3.9-16.4-20.8-28.7-45.2-28.7c-28,0-45.6,16.2-45.6,36.1c0,5.7,1.5,11,4.1,15.8
	c-6.2-6.3-9.6-14.3-9.6-23c0-19.8,17.4-35.9,45-36.1l-10.6-31.2l-33.2-3.6l-52.9,92.1l29.2,100.6l35.6,3.4
	c9.3-17.2,28.6-58.8,38-81.8c0,0,0.1,0,0.1,0c24.3,0,41.1-12.2,45.1-28.5l30.1-2c-1.9-5.7-4-11.3-6.3-16.8l0.3,3.9L797.2,306.4z"/>
<path class="st3" d="M631.3,624.3c-15.6-0.1-37.3-0.5-61-1l3.2,18.6c6.8,0.6,13.6,0.9,20.5,0.9c13.8,0,27.3-1.2,40.5-3.3l-2.1-15.1
	L631.3,624.3z"/>
<path class="st4" d="M636.5,188.7l9.6,0.8l2.4-13.6c8.5-2.3,16-6.7,21.8-12.6c-10-3.3-20.2-5.9-30.7-7.9L636.5,188.7z"/>
<polygon class="st3" points="630.6,432.3 520.3,421.6 520,455.7 625.7,463.5 "/>
<path class="st3" d="M602.9,303.9c17,0,30.8-11.6,30.8-25.8c0-14.2-13.8-25.8-30.8-25.8c-17,0-30.8,11.6-30.8,25.8
	C572.1,292.3,585.9,303.9,602.9,303.9z"/>
<path class="st3" d="M685.5,200.9l-119.9-10.3l-7.8,23.1c48.1,4.3,103,9.6,133.1,12.8L685.5,200.9z"/>
<path class="st4" d="M622.7,187.5l8.8,0.8l3.2-33.7c-2.9-0.5-5.8-0.9-8.8-1.3L622.7,187.5z"/>
<path class="st3" d="M611.3,469.8c-45.3-3.5-99.2-7.3-126.3-8.7c-5.8,29.5-16.2,88.9-25.1,141.8c4.8,3.1,9.7,6.1,14.8,8.9l156.8,4.6
	L611.3,469.8z M508.1,570.6c-4.9,0-9-4-9-9c0-4.9,4-9,9-9c4.9,0,9,4,9,9C517.1,566.6,513.1,570.6,508.1,570.6z M536.6,571
	c-4.9,0-9-4-9-9c0-4.9,4-9,9-9c4.9,0,9,4,9,9C545.6,567,541.5,571,536.6,571z M590.3,571.8l-27.3-1.2v-15.1l27.7,0.8L590.3,571.8z
	 M498.7,538.9l6.5-53.3l81.8,4.9l4.1,53.7L498.7,538.9z"/>
<path class="st3" d="M523.4,340.7c5.1,0,10.3,0.1,15.5,0.3l0.1,74.4l8.3,0.8l-1.5-75c6.3,0.2,12.4,0.5,18.1,0.7l0.1,75.8l8.3,0.8
	l-1.5-76.2c6.4,0.4,12.1,0.8,16.5,1.1l-0.4,76.4l8.3,0.8l-0.9-76.5c0.4,0.1,0.8,0.1,1.2,0.2c12.2,1.9,19.4,10.3,19.8,25.1
	c0.3,12.4,0.6,43.3,0.7,53.2l53.7,5l-29.3-100.8l52.9-92.1c-45.1-4.9-163.3-15.9-209.6-19.4c-12.8,20.1-44.8,73.3-56.7,94.4
	c4.7,22.3,20.6,77.3,27.8,97.8l24.4,2.3c-2.1-12.9-6.9-38.6-8-47.9c-1.1-9.9,3.7-19.2,15.6-20.2c1.9-0.2,3.9-0.3,5.9-0.4l1.9,70
	l8.3,0.8l-3.2-71c5.2-0.2,10.8-0.3,16.6-0.3l0.1,72.6l8.3,0.8L523.4,340.7z M602.9,242.3c22.5,0,40.7,16,40.7,35.8
	c0,19.8-18.2,35.8-40.7,35.8c-22.5,0-40.7-16-40.7-35.8C562.2,258.3,580.4,242.3,602.9,242.3z M505.5,303.6
	c-19.8,0-35.8-15-35.8-33.5c0-18.5,16-33.5,35.8-33.5c19.8,0,35.8,15,35.8,33.5C541.3,288.6,525.2,303.6,505.5,303.6z"/>
<path class="st3" d="M535,622.4c-14.3-0.4-28.6-0.8-42-1.3c12.7,5.7,26,10.4,39.7,14L535,622.4z"/>
<path class="st3" d="M505.5,246.5c-14.2,0-25.8,10.6-25.8,23.6c0,13,11.6,23.6,25.8,23.6c14.2,0,25.8-10.6,25.8-23.6
	C531.3,257.1,519.7,246.5,505.5,246.5z"/>
<path class="st4" d="M607.4,169.4l-0.3,16.8l10.6,0.9l3.2-34.4c-8.9-1-17.9-1.5-27-1.5c-0.7,0-1.4,0-2.1,0
	C595.1,158.5,600.5,164.8,607.4,169.4z"/>
<path class="st3" d="M475.3,469.3L394.8,541c7.9,10.9,16.7,21.1,26.2,30.6l42.3-35.7C467.8,510.2,472,486.6,475.3,469.3z"/>
<path class="st3" d="M397.9,289c0,14.1,8.8,26.3,23.8,32.2c-1.1-4.7-2.1-9-3-12.8c7.8-13.9,20.5-35.3,32.4-55.1
	c-2.5-0.3-5-0.5-7.6-0.5c-19.3,0-33.7,7.7-40.8,19.1l-18.3-3.5c-1.6,2.7-3.2,5.4-4.8,8.1l18.9,5.5
	C398.2,284.3,397.9,286.6,397.9,289z"/>
<path class="st3" d="M382.7,470.8c16.4-9.2,27.4-24.5,27.9-42.1c0.8-25.8-21-48-50.6-53.8l-5.2,15.5c13.9,4.3,23.8,16.2,23.4,29.8
	c-0.4,13.5-10.7,24.6-24.7,28.2c3.4,15.8,8.2,31,14.5,45.6l18.8-3.3L382.7,470.8z"/>
<path class="st3" d="M374.9,500.8l-3.4,0.6c2,4.4,4.2,8.6,6.5,12.9L374.9,500.8z"/>
</svg>
