<?xml version="1.0" encoding="utf-8"?>
<!-- Generator: Adobe Illustrator 19.1.0, SVG Export Plug-In . SVG Version: 6.00 Build 0)  -->
<!DOCTYPE svg PUBLIC "-//W3C//DTD SVG 1.1//EN" "http://www.w3.org/Graphics/SVG/1.1/DTD/svg11.dtd">
<svg version="1.1" id="Layer_1" xmlns="http://www.w3.org/2000/svg" xmlns:xlink="http://www.w3.org/1999/xlink" x="0px" y="0px"
	 viewBox="0 0 1200 550" style="enable-background:new 0 0 1200 550;" xml:space="preserve">
<style type="text/css">
	.st0{fill:#76A0CE;}
</style>
<path class="st0" d="M445.6,407.8c1.1,16.3-0.8,59-3.3,75.7l17.8,9.1c55.4-9.7,200.4-30.5,257.8-35.1l5.2-19.3
	c-3.8-15.6-15.7-55.9-21.3-71.3C646.2,372.7,501.7,396.3,445.6,407.8z M686.1,383.4l3.6,11.2c-5,0.5-10.3,1-16.2,1.7l-2.9-11.5
	C676.4,384.3,681.7,383.8,686.1,383.4z M478.9,463.2c-7.9,1.4-15,2.8-21,4l0.6-14.7c6.3-1.3,13.4-2.8,21.1-4.3L478.9,463.2z
	 M480,441.8c-7.9,1.4-14.9,2.7-21.2,3.9l0.5-11.7c6.2-1.2,13.4-2.6,21.3-4L480,441.8z M480.8,426.1c-8,1.5-15.2,2.9-21.4,4.2
	l0.6-13.5c6.1-1.2,13.4-2.6,21.5-4.1L480.8,426.1z M506.4,458.4c-6.9,1.2-13.4,2.3-19.6,3.4l-0.5-14.7c6.2-1.2,12.6-2.3,19.4-3.6
	L506.4,458.4z M505.4,437.6c-6.8,1.1-13.2,2.2-19.3,3.2l-0.4-11.7c6.1-1.1,12.4-2.2,19.2-3.3L505.4,437.6z M504.7,421.8
	c-6.8,1.2-13.1,2.3-19.1,3.5l-0.4-13.1c5.9-1.1,12.3-2.2,19-3.3L504.7,421.8z M531.6,454.3c-7.3,1.2-14.5,2.3-21.3,3.5l-0.1-15
	c6.9-1.2,14-2.4,21.2-3.6L531.6,454.3z M531.3,433.5c-7.2,1.1-14.3,2.2-21.2,3.3L510,425c6.8-1.1,13.8-2.2,21.1-3.4L531.3,433.5z
	 M531,417.2c-7.2,1.2-14.2,2.4-21,3.6l-0.1-13c6.7-1.1,13.7-2.3,20.9-3.4L531,417.2z M557.5,450.3c-6,0.9-12,1.8-17.9,2.8l-1.5-15.1
	c6-1,12.1-2,18.3-3L557.5,450.3z M556,429.8c-6.2,0.9-12.4,1.8-18.4,2.8l-1.1-11.8c6.2-0.9,12.4-1.9,18.7-2.8L556,429.8z
	 M554.8,413.3c-6.4,1-12.7,2.1-18.8,3.1l-1.2-12.6c6.3-1,12.7-2,19.2-3L554.8,413.3z M557.7,400.2c6.6-1,13.3-2,20-3l2,12.2
	c-6.7,1-13.4,2.1-20.1,3.2L557.7,400.2z M560.3,417.2c6.7-1,13.4-2,20.2-2.9l1.9,11.7c-6.8,0.9-13.5,1.9-20.3,2.9L560.3,417.2z
	 M565.3,449.1L563,434c6.8-1.1,13.5-2.1,20.3-3.1l2.5,15.3C579,447.1,572.1,448.1,565.3,449.1z M607.2,443.1
	c-5.8,0.8-11.7,1.6-17.6,2.5l-2-15.4c6.1-0.9,12.2-1.8,18.3-2.7L607.2,443.1z M605.5,422.8c-6.1,0.8-12.3,1.7-18.5,2.5l-1.5-11.8
	c6.4-0.9,12.7-1.8,19-2.6L605.5,422.8z M604.2,405.7c-6.4,0.9-12.8,1.9-19.2,2.9l-1.5-12.2c6.7-1,13.3-1.9,19.8-2.8L604.2,405.7z
	 M607,393c5.6-0.8,11-1.5,16.4-2.2l1.7,12c-5.4,0.8-11,1.6-16.6,2.4L607,393z M609,410.3c5.7-0.8,11.2-1.5,16.7-2.2l1.6,11.7
	c-5.6,0.7-11.2,1.5-16.9,2.2L609,410.3z M612.8,442.3l-1.9-15.6c5.8-0.8,11.4-1.6,17-2.4l2.2,15.7
	C624.5,440.7,618.7,441.5,612.8,442.3z M627.1,390.3c6.1-0.8,12-1.6,17.7-2.3l1.9,11.8c-5.7,0.8-11.5,1.5-17.5,2.4L627.1,390.3z
	 M630.2,407.6c6-0.8,11.9-1.5,17.5-2.1l1.9,11.6c-5.6,0.7-11.4,1.4-17.4,2.2L630.2,407.6z M635.8,439.2l-2.8-15.6
	c5.9-0.8,11.7-1.6,17.3-2.3l2.6,15.7C647.3,437.7,641.7,438.5,635.8,439.2z M650.5,387.2c5-0.6,9.9-1.2,14.4-1.7l3.3,11.5
	c-5.1,0.6-10.6,1.3-16.2,2L650.5,387.2z M652.8,404.9c6-0.7,11.8-1.3,17.2-1.9l3.3,11.2c-5.9,0.7-12.3,1.4-19,2.2L652.8,404.9z
	 M656.8,436.6l-2-15.8c6.9-0.9,13.5-1.7,19.6-2.4l4.5,15.6C672.1,434.7,664.6,435.6,656.8,436.6z M675.1,402.6
	c6.1-0.6,11.6-1.1,16.7-1.4l3.5,11c-5.2,0.5-10.9,1-17.3,1.7L675.1,402.6z M682.8,433.6l-3.9-15.7c6.5-0.7,12.3-1.3,17.6-1.8l5,15.7
	C696.1,432.2,689.7,432.8,682.8,433.6z M803.9,422.2c-0.8,7.6-25.4,19.4-39.1,18.1c-8.6-0.8-36.8-23.3-37.8-33
	c-0.7-6.7,16.6-14,33.2-13.1C776.8,395.3,804.6,414.6,803.9,422.2z M396.1,94c1.7,49.4,13.8,176.5,20.8,225.4
	c24.3-3.5,63.4-7.7,105.7-11.6c11.1,11.3,31.1,32.3,39.7,42.1c-18.9,1.2-67.4,7.4-86.1,10.6l3.8,26.2
	c30.9-8.9,112.1-21.7,143.8-22.5l1.8-14.5c-18.7-9.1-60.3-32.3-79.5-44.1c59.2-5.2,120.3-9.4,153.1-10.3
	c-2.1-52.1-12.3-186.2-18.4-237.9C619.7,61.9,459.1,82.4,396.1,94z M581,110.4c5.4-0.5,10.1,3.4,10.7,8.7c0.5,5.4-3.4,10.2-8.7,10.7
	c-5.4,0.5-10.1-3.4-10.7-8.8C571.7,115.7,575.7,110.9,581,110.4z M528,218.7l-8.8,68l-83.1,7.5C431,256.9,420,157,416.8,116.9
	c26.2-5.1,94.5-14.7,121-17.4c-6.6,15.6-28.6,52-38.5,64.8l37-2.5l-4.4,34c26.5,1.8,73.5-28.1,83.5-52.5
	C615.9,180.8,569.4,219.1,528,218.7z M651,262.1l-14.5-19.5l-11.7,11.5L610,208.5l43.5,17.4l-10.6,10.4l16.4,15.2L651,262.1z
	 M482.1,148.4c0.6,5.8-3.7,11-9.5,11.6c-5.8,0.6-11-3.7-11.6-9.5c-0.6-5.8,3.7-11,9.5-11.6C476.4,138.4,481.6,142.6,482.1,148.4z"/>
</svg>
