<?xml version="1.0" encoding="utf-8"?>
<!-- Generator: Adobe Illustrator 19.1.0, SVG Export Plug-In . SVG Version: 6.00 Build 0)  -->
<!DOCTYPE svg PUBLIC "-//W3C//DTD SVG 1.1//EN" "http://www.w3.org/Graphics/SVG/1.1/DTD/svg11.dtd">
<svg version="1.1" id="Artwork" xmlns="http://www.w3.org/2000/svg" xmlns:xlink="http://www.w3.org/1999/xlink" x="0px" y="0px"
	 viewBox="28.6 316.7 123.4 67.2" style="enable-background:new 28.6 316.7 123.4 67.2;" xml:space="preserve">
<style type="text/css">
	.st0{fill:#2B3E50;}
</style>
<g>
	<g>
		<g>
			<path class="st0" d="M84.4,328l-1.7,3.6c-1.6-0.9-3.9-1.8-5.3-1.8c-0.8,0-1.3,0.3-1.3,0.9c0,2.3,8.3,1,8.3,6.7c0,3.4-3,5-6.5,5
				c-2.7,0-5.6-1-7.6-2.5l1.8-3.6c1.6,1.4,4.3,2.4,5.9,2.4c1,0,1.6-0.3,1.6-1.1c0-2.4-8.3-0.9-8.3-6.5c0-3.1,2.6-5,6.6-5
				C80.2,326.2,82.7,326.9,84.4,328z"/>
			<path class="st0" d="M94.2,330.2v12.1h-4.7v-12.1h-4.6v-3.8h13.9v3.8H94.2z"/>
			<path class="st0" d="M105,330v2.5h7.5v3.6H105v2.5h8.5v3.6h-13.2v-15.9h13v3.6H105z"/>
			<path class="st0" d="M120,339.7l-1,2.5h-4.8l6.8-15.9h4.8l6.5,15.9h-5l-0.9-2.5H120z M123.3,331.1l-1.9,5.2h3.8L123.3,331.1z"/>
			<path class="st0" d="M147.2,342.3l0-9.4l-3.2,7.8h-3.1l-3.2-7.8v9.4h-4.1v-15.9h5l3.8,8.8l3.8-8.8h5v15.9H147.2z"/>
		</g>
		<g>
			<path class="st0" d="M81.9,348.6l-0.5,0.6c-1.1-1-2.7-1.7-4.3-1.7c-3.4,0-6.2,2.7-6.2,6c0,3.3,2.8,6,6.2,6c1.6,0,3.1-0.6,4.3-1.6
				l0.5,0.6c-1.3,1.2-3,1.9-4.8,1.9c-3.8,0-7-3-7-6.8c0-3.8,3.1-6.8,7-6.8C79,346.8,80.7,347.5,81.9,348.6z"/>
			<path class="st0" d="M97.4,353.6c0,3.8-3.1,6.8-7,6.8c-3.9,0-7-3-7-6.8c0-3.8,3.1-6.8,7-6.8C94.3,346.8,97.4,349.8,97.4,353.6z
				 M84.3,353.6c0,3.3,2.8,6,6.2,6s6.2-2.7,6.2-6c0-3.3-2.8-6-6.2-6S84.3,350.2,84.3,353.6z"/>
			<path class="st0" d="M113.1,353.6c0,3.8-3.1,6.8-7,6.8s-7-3-7-6.8c0-3.8,3.1-6.8,7-6.8S113.1,349.8,113.1,353.6z M99.9,353.6
				c0,3.3,2.8,6,6.2,6s6.2-2.7,6.2-6c0-3.3-2.8-6-6.2-6S99.9,350.2,99.9,353.6z"/>
			<path class="st0" d="M120.1,353.4l-3,3.2v3.6h-0.8v-13.5h0.8v8.7l8.1-8.7h1l-5.5,6l5.9,7.5h-1L120.1,353.4z"/>
			<path class="st0" d="M130.3,347.6v5.4h7v0.8h-7v5.7h8.2v0.8h-9v-13.5h8.7v0.8H130.3z"/>
			<path class="st0" d="M147.9,355.7c-0.4,0.1-0.7,0.1-1.1,0.1h-4v4.5H142v-13.5h4.8c3.3,0,5.2,1.6,5.2,4.4c0,2.3-1.2,3.8-3.3,4.4
				l3.4,4.7h-1L147.9,355.7z M146.8,355c2.8,0,4.4-1.3,4.4-3.8c0-2.4-1.6-3.7-4.4-3.7h-4v7.4H146.8z"/>
		</g>
	</g>
	<path class="st0" d="M58.4,344.9c0.4,0.9,0.1,1.9-0.8,2.4c-0.9,0.4-1.9,0.1-2.4-0.8s-0.1-1.9,0.8-2.4C56.9,343.6,58,344,58.4,344.9
		z M39.9,342.6c1.4-0.7,2-2.4,1.3-3.8c-0.7-1.4-2.4-2-3.8-1.3c-1.4,0.7-2,2.4-1.3,3.8C36.8,342.7,38.5,343.3,39.9,342.6z
		 M58.4,357.9c-1.6,0.8-2.3,2.7-1.5,4.3c0.8,1.6,2.7,2.3,4.3,1.5c1.6-0.8,2.3-2.7,1.5-4.3C61.9,357.8,60,357.1,58.4,357.9z
		 M52.8,366c-0.8,0.4-1.1,1.3-0.7,2.1c0.4,0.8,1.3,1.1,2.1,0.7c0.8-0.4,1.1-1.3,0.7-2.1C54.5,365.9,53.6,365.6,52.8,366z M33.3,360
		c-1.4,0.7-2,2.4-1.3,3.8c0.7,1.4,2.4,2,3.8,1.3c1.4-0.7,2-2.4,1.3-3.8C36.4,359.9,34.7,359.3,33.3,360z M37.7,327.7
		c1.6-0.8,2.3-2.7,1.5-4.3c-0.8-1.6-2.7-2.3-4.3-1.5c-1.6,0.8-2.3,2.7-1.5,4.3C34.1,327.8,36.1,328.5,37.7,327.7z M42.7,319.5
		c0.7-0.4,1-1.2,0.7-2c-0.4-0.7-1.2-1-2-0.7c-0.7,0.4-1,1.2-0.7,2C41.1,319.6,42,319.9,42.7,319.5z M58.5,323c-1.1,0.5-1.6,1.9-1,3
		c0.6,1.1,1.9,1.6,3,1c1.1-0.5,1.6-1.9,1-3S59.7,322.4,58.5,323z M60.4,337.9c1.9,0.6,3.6,2,4.5,4c1.9,3.9,0.3,8.6-3.6,10.5
		c-2,1-4.3,1-6.3,0.3c-0.5,0.8-1.2,1.4-2.1,1.9c0.4,0.4,0.7,0.9,0.9,1.4c1.5,3.1,0.2,6.9-2.8,8.4c-3.1,1.5-6.9,0.2-8.4-2.8
		c-0.7-1.3-0.8-2.8-0.5-4.2c-1.6-0.2-3.2-0.9-4.3-2.1c-0.1,0-0.1,0.1-0.2,0.1c-2.8,1.4-6.2,0.2-7.6-2.6c-1.1-2.2-0.6-4.8,1-6.4
		c-0.6-0.6-1.1-1.3-1.5-2.2c-2.1-4.3-0.3-9.6,4-11.8c2.6-1.3,5.4-1.2,7.8,0c0.3-0.5,0.7-1,1.2-1.4c-0.1-0.1-0.1-0.2-0.2-0.3
		c-1.8-3.6-0.3-7.9,3.3-9.7c3.6-1.8,7.9-0.3,9.7,3.3c0.9,1.7,0.9,3.7,0.4,5.4c1.8,0.4,3.5,1.6,4.4,3.4
		C60.9,334.6,60.9,336.4,60.4,337.9z M45.1,329.2c1,2,3.5,2.9,5.5,1.9c2-1,2.9-3.5,1.9-5.5c-1-2-3.5-2.9-5.5-1.9
		C45,324.7,44.1,327.2,45.1,329.2z M52.9,332.9c-1.6,0.8-2.3,2.7-1.5,4.3c0.8,1.6,2.7,2.3,4.3,1.5c1.6-0.8,2.3-2.7,1.5-4.3
		C56.5,332.8,54.5,332.1,52.9,332.9z M44,336c0.5,1.1,1.9,1.6,3,1c1.1-0.5,1.6-1.9,1-3c-0.6-1.1-1.9-1.6-3-1
		C43.9,333.6,43.4,334.9,44,336z M32.3,342.7c1.4,2.8,4.8,4,7.6,2.6c2.8-1.4,4-4.8,2.6-7.6c-1.4-2.8-4.8-4-7.6-2.6
		C32.1,336.5,31,339.9,32.3,342.7z M37.4,349.1c-0.6-1.3-2.1-1.8-3.4-1.2c-1.3,0.6-1.8,2.1-1.2,3.4c0.6,1.3,2.1,1.8,3.4,1.2
		C37.5,351.9,38,350.3,37.4,349.1z M44.7,353.8c1.9-1,2.7-3.3,1.8-5.2c-1-1.9-3.3-2.7-5.2-1.8c-1.9,1-2.7,3.3-1.8,5.2
		C40.4,354,42.7,354.8,44.7,353.8z M51.1,357.3c-0.8-1.6-2.6-2.2-4.2-1.4c-1.6,0.8-2.2,2.6-1.4,4.2c0.8,1.6,2.6,2.2,4.2,1.4
		C51.2,360.7,51.8,358.9,51.1,357.3z M52.6,348.5c-0.6-1.2-2.1-1.7-3.3-1.1c-1.2,0.6-1.7,2.1-1.1,3.3c0.6,1.2,2.1,1.7,3.3,1.1
		C52.7,351.2,53.2,349.7,52.6,348.5z M51.5,340.4c-1-1.9-3.3-2.7-5.2-1.8c-1.9,1-2.7,3.3-1.8,5.2c1,1.9,3.3,2.7,5.2,1.8
		C51.6,344.7,52.4,342.3,51.5,340.4z M62.1,343.3c-1.1-2.3-4-3.3-6.3-2.1c-2.3,1.1-3.3,4-2.1,6.3c1.1,2.3,4,3.3,6.3,2.1
		C62.3,348.4,63.2,345.6,62.1,343.3z"/>
</g>
<g>
	<path class="st0" d="M75.1,377.3l-0.4,0.8c-0.5-0.3-1-0.5-1.5-0.5c-0.4,0-0.8,0.1-0.8,0.5c0,1,2.8,0.4,2.8,2.3c0,1.1-0.9,1.5-2,1.5
		c-0.8,0-1.6-0.3-2.1-0.7l0.4-0.8c0.4,0.4,1.2,0.6,1.7,0.6c0.5,0,0.8-0.2,0.8-0.6c0-1.1-2.7-0.5-2.7-2.3c0-1.1,0.9-1.5,1.9-1.5
		C73.9,376.8,74.6,377,75.1,377.3z"/>
	<path class="st0" d="M79.3,381.7c-0.4,0.2-0.8,0.4-1.3,0.4c-0.8,0-1.5-0.4-1.5-1.5v-2.7h-0.7V377h0.7v-1.4h1.1v1.4h1.5v0.8h-1.5
		v2.5c0,0.5,0.2,0.7,0.6,0.7c0.2,0,0.5-0.1,0.8-0.2L79.3,381.7z"/>
	<path class="st0" d="M84.8,379.9h-3.9c0.2,0.8,0.8,1.3,1.6,1.3c0.6,0,1.1-0.2,1.5-0.6l0.6,0.6c-0.5,0.6-1.3,0.9-2.1,0.9
		c-1.6,0-2.7-1.1-2.7-2.6c0-1.6,1.1-2.6,2.6-2.6C84.2,376.8,85,378,84.8,379.9z M83.8,379c0-0.8-0.6-1.3-1.4-1.3
		c-0.8,0-1.4,0.5-1.5,1.3H83.8z"/>
	<path class="st0" d="M89.1,381.4c-0.4,0.5-1,0.7-1.7,0.7c-1.1,0-1.8-0.7-1.8-1.6c0-0.9,0.7-1.6,2-1.6h1.6v-0.2c0-0.7-0.4-1-1.2-1
		c-0.5,0-1,0.2-1.5,0.5l-0.5-0.8c0.7-0.4,1.3-0.7,2.2-0.7c1.3,0,2.1,0.7,2.1,1.8l0,3.4h-1.1V381.4z M89.1,380.2v-0.5h-1.4
		c-0.7,0-1.1,0.2-1.1,0.7c0,0.5,0.4,0.8,1,0.8C88.4,381.2,89,380.8,89.1,380.2z"/>
	<path class="st0" d="M100.4,378.8v3.2h-1.1v-2.9c0-0.8-0.5-1.3-1.2-1.3c-0.9,0-1.4,0.7-1.4,1.6v2.6h-1.1v-2.9
		c0-0.8-0.5-1.3-1.2-1.3c-0.9,0-1.4,0.7-1.4,1.6v2.6h-1.1v-5.2h1.1v1c0.4-0.7,1-1,1.9-1c0.9,0,1.6,0.5,1.8,1.3c0.3-0.9,1-1.3,2-1.3
		C99.7,376.8,100.4,377.5,100.4,378.8z"/>
	<path class="st0" d="M106.2,377.6l-0.6,0.7c-0.4-0.4-0.9-0.6-1.5-0.6c-0.9,0-1.5,0.7-1.5,1.7c0,1,0.6,1.7,1.5,1.7
		c0.7,0,1.2-0.2,1.5-0.6l0.6,0.6c-0.5,0.6-1.2,1-2.2,1c-1.5,0-2.6-1.1-2.6-2.6c0-1.6,1.1-2.6,2.6-2.6
		C105,376.8,105.7,377.1,106.2,377.6z"/>
	<path class="st0" d="M112.1,379.4c0,1.6-1.1,2.6-2.7,2.6c-1.6,0-2.7-1.1-2.7-2.6c0-1.6,1.1-2.6,2.7-2.6
		C111,376.8,112.1,377.8,112.1,379.4z M107.8,379.4c0,1,0.7,1.7,1.6,1.7c0.9,0,1.6-0.7,1.6-1.7c0-1-0.7-1.7-1.6-1.7
		C108.5,377.8,107.8,378.4,107.8,379.4z"/>
	<path class="st0" d="M118.2,379.4c0,1.6-1.1,2.6-2.7,2.6c-1.6,0-2.7-1.1-2.7-2.6c0-1.6,1.1-2.6,2.7-2.6
		C117.1,376.8,118.2,377.8,118.2,379.4z M113.9,379.4c0,1,0.7,1.7,1.6,1.7c0.9,0,1.6-0.7,1.6-1.7c0-1-0.7-1.7-1.6-1.7
		C114.6,377.8,113.9,378.4,113.9,379.4z"/>
	<path class="st0" d="M120.6,380.6v1.5h-1.1v-7.2h1.1v4.4l2.3-2.3h1.3l-1.9,2l2.1,3.2H123l-1.5-2.4L120.6,380.6z"/>
	<path class="st0" d="M129.6,379.9h-3.9c0.2,0.8,0.8,1.3,1.6,1.3c0.6,0,1.1-0.2,1.5-0.6l0.6,0.6c-0.5,0.6-1.3,0.9-2.1,0.9
		c-1.6,0-2.7-1.1-2.7-2.6c0-1.6,1.1-2.6,2.6-2.6C129,376.8,129.7,378,129.6,379.9z M128.6,379c0-0.8-0.6-1.3-1.4-1.3
		c-0.8,0-1.4,0.5-1.5,1.3H128.6z"/>
	<path class="st0" d="M131.9,377.9c0.4-0.7,1-1.1,1.8-1.1v1.1c-1-0.1-1.7,0.6-1.8,1.4v2.7h-1.1v-5.2h1.1V377.9z"/>
	<path class="st0" d="M135.4,381.5c0,0.4-0.3,0.7-0.6,0.7c-0.4,0-0.6-0.3-0.6-0.7c0-0.4,0.3-0.6,0.6-0.6
		C135.2,380.8,135.4,381.1,135.4,381.5z"/>
	<path class="st0" d="M141.6,379.4c0,1.6-1.1,2.6-2.7,2.6c-1.6,0-2.7-1.1-2.7-2.6c0-1.6,1.1-2.6,2.7-2.6
		C140.5,376.8,141.6,377.8,141.6,379.4z M137.3,379.4c0,1,0.7,1.7,1.6,1.7c0.9,0,1.6-0.7,1.6-1.7c0-1-0.7-1.7-1.6-1.7
		C138,377.8,137.3,378.4,137.3,379.4z"/>
	<path class="st0" d="M143.9,377.9c0.4-0.7,1-1.1,1.8-1.1v1.1c-1-0.1-1.7,0.6-1.8,1.4v2.7h-1.1v-5.2h1.1V377.9z"/>
	<path class="st0" d="M151.4,381.5c0,1.5-1.1,2.4-2.7,2.4c-0.8,0-1.5-0.3-2.2-0.7l0.5-0.8c0.5,0.4,1,0.6,1.6,0.6
		c1,0,1.6-0.6,1.6-1.5v-0.7c-0.4,0.6-0.9,0.9-1.7,0.9c-1.4,0-2.3-1-2.3-2.5c0-1.5,0.9-2.5,2.3-2.5c0.8,0,1.4,0.3,1.8,0.9v-0.8h1.1
		V381.5z M150.2,379.3c0-0.9-0.6-1.6-1.5-1.6c-0.9,0-1.5,0.7-1.5,1.6c0,0.9,0.6,1.6,1.5,1.6C149.6,380.9,150.2,380.2,150.2,379.3z"
		/>
</g>
</svg>
