<?xml version="1.0" encoding="utf-8"?>
<!-- Generator: Adobe Illustrator 19.1.0, SVG Export Plug-In . SVG Version: 6.00 Build 0)  -->
<!DOCTYPE svg PUBLIC "-//W3C//DTD SVG 1.1//EN" "http://www.w3.org/Graphics/SVG/1.1/DTD/svg11.dtd">
<svg version="1.1" id="Layer_1" xmlns="http://www.w3.org/2000/svg" xmlns:xlink="http://www.w3.org/1999/xlink" x="0px" y="0px"
	 viewBox="0 0 608.744 257.496" style="enable-background:new 0 0 608.744 257.496;" xml:space="preserve">
<g>
	<g>
		<path style="fill:#FFFFFF;" d="M275.042,55.899l-8.592,17.854c-8.035-4.575-19.417-8.704-26-8.704
			c-3.906,0-6.473,1.339-6.473,4.241c0,11.493,40.841,4.687,40.841,32.918c0,16.626-14.729,24.549-32.248,24.549
			c-13.279,0-27.785-4.687-37.605-12.386l8.704-17.631c8.034,6.807,21.09,11.94,29.124,11.94c4.91,0,8.034-1.674,8.034-5.245
			c0-11.828-40.841-4.352-40.841-31.914c0-15.064,12.833-24.661,32.36-24.661C254.287,46.861,266.561,50.431,275.042,55.899z"/>
		<path style="fill:#FFFFFF;" d="M323.361,66.388v59.699H300.04V66.388h-22.652V47.865h68.737v18.523H323.361z"/>
		<path style="fill:#FFFFFF;" d="M376.588,65.719v12.274h36.936v17.854h-36.936v12.386h41.846v17.854h-65.056V47.865h63.939v17.854
			H376.588z"/>
		<path style="fill:#FFFFFF;" d="M450.685,113.59l-4.687,12.498h-23.88l33.364-78.223h23.88l32.249,78.223h-24.772l-4.575-12.498
			H450.685z M466.753,71.075l-9.597,25.554h18.97L466.753,71.075z"/>
		<path style="fill:#FFFFFF;" d="M584.48,126.088l-0.112-46.309l-15.733,38.609h-15.176l-15.734-38.609v46.309h-20.42V47.865h24.884
			l18.858,43.296l18.858-43.296h24.884v78.223H584.48z"/>
	</g>
	<g>
		<path style="fill:#FFFFFF;" d="M262.863,157.275l-2.384,3.052c-5.532-5.151-13.068-8.203-20.985-8.203
			c-16.884,0-30.524,13.163-30.524,29.475c0,16.406,13.64,29.665,30.524,29.665c7.918,0,15.358-3.052,20.985-8.108l2.48,2.766
			c-6.201,5.724-14.69,9.252-23.561,9.252c-18.982,0-34.434-14.976-34.434-33.48s15.453-33.385,34.434-33.385
			C248.365,148.309,256.664,151.743,262.863,157.275z"/>
		<path style="fill:#FFFFFF;" d="M339.27,181.694c0,18.505-15.453,33.48-34.53,33.48c-19.077,0-34.529-14.976-34.529-33.48
			s15.453-33.385,34.529-33.385C323.817,148.309,339.27,163.189,339.27,181.694z M274.311,181.694
			c0,16.311,13.735,29.57,30.428,29.57s30.429-13.259,30.429-29.57s-13.736-29.474-30.429-29.474S274.311,165.383,274.311,181.694z"
			/>
		<path style="fill:#FFFFFF;" d="M416.535,181.694c0,18.505-15.453,33.48-34.53,33.48c-19.078,0-34.529-14.976-34.529-33.48
			s15.452-33.385,34.529-33.385C401.082,148.309,416.535,163.189,416.535,181.694z M351.577,181.694
			c0,16.311,13.735,29.57,30.428,29.57c16.692,0,30.429-13.259,30.429-29.57s-13.736-29.474-30.429-29.474
			C365.312,152.219,351.577,165.383,351.577,181.694z"/>
		<path style="fill:#FFFFFF;" d="M451.068,181.121l-14.69,16.025v17.933h-4.007v-66.675h4.007v42.924l39.871-42.924h4.96
			l-27.185,29.57l29.284,37.105h-5.055L451.068,181.121z"/>
		<path style="fill:#FFFFFF;" d="M501.338,152.315v26.612h34.721v4.006h-34.721v28.235h40.253v3.911h-44.26v-66.675h43.019v3.911
			H501.338z"/>
		<path style="fill:#FFFFFF;" d="M588.236,192.472c-1.812,0.286-3.625,0.382-5.628,0.382h-19.554v22.225h-4.007v-66.675h23.561
			c16.502,0,25.85,8.013,25.85,21.939c0,11.351-5.819,18.791-16.406,21.462l16.693,23.274h-4.769L588.236,192.472z M582.703,188.943
			c13.927,0,21.844-6.582,21.844-18.505c0-11.732-7.917-18.123-21.844-18.123h-19.649v36.628H582.703z"/>
	</g>
</g>
<path style="fill:#FFFFFF;" d="M146.69,138.864c2.119,4.301,0.354,9.52-3.954,11.642c-4.306,2.121-9.525,0.342-11.644-3.959
	c-2.119-4.301-0.342-9.512,3.964-11.633C139.363,132.793,144.571,134.563,146.69,138.864z M55.592,127.741
	c6.94-3.418,9.796-11.82,6.375-18.765c-3.416-6.935-11.818-9.791-18.757-6.373c-6.94,3.419-9.796,11.82-6.38,18.755
	C40.25,128.303,48.652,131.159,55.592,127.741z M146.527,203.028c-7.9,3.891-11.151,13.441-7.26,21.342
	c3.892,7.9,13.45,11.154,21.35,7.263c7.9-3.892,11.146-13.452,7.255-21.353C163.98,202.379,154.427,199.136,146.527,203.028z
	 M119.284,242.829c-3.829,1.886-5.405,6.521-3.518,10.35c1.886,3.829,6.521,5.405,10.35,3.519c3.829-1.886,5.405-6.521,3.519-10.35
	C127.748,242.519,123.113,240.943,119.284,242.829z M22.891,213.303c-6.94,3.419-9.796,11.82-6.375,18.765
	c3.416,6.935,11.817,9.791,18.757,6.372c6.94-3.419,9.791-11.817,6.375-18.752C38.227,212.743,29.831,209.884,22.891,213.303z
	 M44.582,54.001c7.9-3.891,11.141-13.45,7.249-21.35c-3.891-7.9-13.439-11.146-21.339-7.254c-7.9,3.891-11.152,13.442-7.26,21.342
	C27.123,54.639,36.682,57.893,44.582,54.001z M69.447,13.747c3.588-1.767,5.069-6.11,3.301-9.697
	c-1.767-3.588-6.118-5.071-9.706-3.304c-3.594,1.77-5.064,6.121-3.296,9.709C61.513,14.042,65.853,15.517,69.447,13.747z
	 M147.48,30.775c-5.502,2.71-7.768,9.376-5.055,14.884s9.373,7.763,14.876,5.053c5.503-2.711,7.774-9.365,5.061-14.873
	C159.649,30.331,152.983,28.064,147.48,30.775z M156.406,104.669c9.395,3.171,17.577,9.927,22.295,19.505
	c9.404,19.092,1.527,42.265-17.56,51.667c-10.023,4.937-21.166,5.109-30.853,1.4c-2.544,3.817-6.081,7.044-10.454,9.253
	c1.826,2.033,3.398,4.353,4.663,6.92c7.518,15.263,1.215,33.802-14.047,41.319c-15.263,7.518-33.801,1.216-41.32-14.047
	c-3.264-6.627-3.927-13.854-2.383-20.546c-8.003-0.87-15.59-4.523-21.282-10.432c-0.351,0.2-0.708,0.376-1.075,0.557
	c-13.831,6.813-30.623,1.109-37.433-12.716c-5.34-10.841-2.995-23.49,4.909-31.747c-2.918-3.075-5.43-6.637-7.408-10.653
	c-10.561-21.44-1.709-47.479,19.731-58.04c12.58-6.197,26.728-5.722,38.422,0.066c1.469-2.578,3.382-4.938,5.697-6.938
	c-0.303-0.546-0.59-1.086-0.865-1.646C58.74,50.927,66.033,29.487,83.688,20.79c17.655-8.696,39.092-1.409,47.794,16.257
	c4.232,8.591,4.673,18.082,1.981,26.566c9.031,1.946,17.135,7.866,21.524,16.776C158.861,88.256,159.121,96.991,156.406,104.669z
	 M81.261,61.785c4.951,10.051,17.114,14.19,27.17,9.237c10.051-4.951,14.182-17.116,9.231-27.167
	c-4.951-10.051-17.114-14.19-27.165-9.239C80.442,39.569,76.311,51.734,81.261,61.785z M119.821,79.946
	c-7.9,3.892-11.146,13.439-7.254,21.339c3.891,7.9,13.444,11.157,21.345,7.265c7.9-3.892,11.146-13.453,7.255-21.353
	C137.275,79.297,127.722,76.054,119.821,79.946z M75.658,95.236c2.708,5.497,9.373,7.764,14.876,5.053
	c5.502-2.71,7.768-9.376,5.06-14.874c-2.713-5.508-9.373-7.763-14.876-5.052C75.216,83.074,72.945,89.728,75.658,95.236z
	 M18.277,128.342c6.821,13.847,23.575,19.543,37.416,12.725c13.847-6.821,19.543-23.575,12.722-37.422
	c-6.815-13.836-23.569-19.531-37.416-12.711C17.157,97.752,11.461,114.506,18.277,128.342z M43.307,159.643
	c-3.07-6.232-10.598-8.782-16.819-5.718c-6.222,3.065-8.788,10.587-5.718,16.819c3.059,6.21,10.592,8.771,16.814,5.707
	C43.805,173.387,46.366,165.853,43.307,159.643z M79.03,182.964c9.568-4.713,13.51-16.294,8.791-25.873
	c-4.713-9.567-16.297-13.502-25.865-8.788c-9.573,4.716-13.515,16.298-8.802,25.865C57.873,183.746,69.457,187.679,79.03,182.964z
	 M110.682,200.218c-3.773-7.659-13.042-10.81-20.701-7.038c-7.659,3.773-10.81,13.042-7.037,20.701
	c3.773,7.659,13.042,10.81,20.701,7.038C111.303,217.147,114.454,207.877,110.682,200.218z M118.282,156.621
	c-2.946-5.98-10.185-8.44-16.17-5.492c-5.98,2.946-8.441,10.184-5.495,16.164c2.951,5.991,10.189,8.451,16.169,5.506
	C118.772,169.85,121.233,162.611,118.282,156.621z M112.687,116.85c-4.718-9.579-16.297-13.515-25.865-8.802
	c-9.579,4.718-13.515,16.297-8.797,25.876c4.713,9.568,16.296,13.515,25.875,8.796C113.469,138.007,117.4,126.418,112.687,116.85z
	 M164.886,130.978c-5.658-11.487-19.563-16.214-31.045-10.558c-11.488,5.659-16.214,19.563-10.556,31.05
	c5.659,11.488,19.563,16.216,31.051,10.557C165.818,156.371,170.545,142.466,164.886,130.978z"/>
</svg>
