<?xml version="1.0" encoding="utf-8"?>
<!-- Generator: Adobe Illustrator 19.1.0, SVG Export Plug-In . SVG Version: 6.00 Build 0)  -->
<!DOCTYPE svg PUBLIC "-//W3C//DTD SVG 1.1//EN" "http://www.w3.org/Graphics/SVG/1.1/DTD/svg11.dtd">
<svg version="1.1" id="Layer_1" xmlns="http://www.w3.org/2000/svg" xmlns:xlink="http://www.w3.org/1999/xlink" x="0px" y="0px"
	 viewBox="0 0 1200 550" style="enable-background:new 0 0 1200 550;" xml:space="preserve">
<style type="text/css">
	.st0{fill:#76A0CE;}
</style>
<path class="st0" d="M449.6,453.2c1.6,22.1-1,79.9-4.5,102.5l24.1,12.3c75-13.1,271.3-41.2,349-47.5l7-26.1
	c-5.2-21.2-21.2-75.7-28.9-96.6C721.1,405.7,525.5,437.7,449.6,453.2z M775.2,420.3l4.8,15.2c-6.7,0.7-14,1.4-21.9,2.3l-3.9-15.5
	C761.9,421.5,769.1,420.8,775.2,420.3z M494.6,528.3c-10.6,1.9-20.3,3.8-28.4,5.5l0.8-19.9c8.5-1.8,18.2-3.8,28.6-5.8L494.6,528.3z
	 M496.1,499.4c-10.7,1.8-20.1,3.6-28.7,5.2l0.7-15.8c8.5-1.7,18.2-3.5,28.8-5.4L496.1,499.4z M497.2,478.1c-10.8,2-20.6,4-28.9,5.7
	l0.8-18.2c8.2-1.7,18.1-3.5,29.1-5.5L497.2,478.1z M531.8,521.8c-9.3,1.6-18.2,3.1-26.6,4.6l-0.6-20c8.4-1.6,17.1-3.2,26.3-4.8
	L531.8,521.8z M530.5,493.6c-9.2,1.5-17.9,2.9-26.2,4.3l-0.5-15.8c8.2-1.5,16.8-2.9,26-4.4L530.5,493.6z M529.5,472.2
	c-9.2,1.6-17.7,3.2-25.9,4.7l-0.6-17.7c8-1.4,16.6-2.9,25.7-4.5L529.5,472.2z M565.9,516.3c-9.9,1.6-19.6,3.1-28.9,4.7l-0.1-20.4
	c9.3-1.6,18.9-3.3,28.7-4.9L565.9,516.3z M565.5,488.1c-9.8,1.5-19.4,3-28.7,4.5l-0.1-16c9.2-1.5,18.7-3,28.5-4.6L565.5,488.1z
	 M565.1,466.1c-9.8,1.6-19.3,3.3-28.5,4.9l-0.1-17.6c9.1-1.5,18.6-3.1,28.3-4.6L565.1,466.1z M601,510.8c-8.2,1.2-16.2,2.5-24.2,3.7
	l-2-20.4c8.2-1.4,16.4-2.7,24.7-4L601,510.8z M599,483.1c-8.4,1.2-16.7,2.5-25,3.7l-1.6-15.9c8.3-1.3,16.8-2.6,25.4-3.9L599,483.1z
	 M597.4,460.8c-8.6,1.4-17.1,2.8-25.5,4.2l-1.7-17.1c8.6-1.3,17.2-2.7,26-4.1L597.4,460.8z M601.3,443c9-1.4,18-2.7,27.1-4.1
	l2.7,16.5c-9.1,1.4-18.2,2.8-27.2,4.3L601.3,443z M604.9,466c9.1-1.3,18.2-2.6,27.3-3.9l2.6,15.9c-9.2,1.3-18.3,2.6-27.5,3.9
	L604.9,466z M611.6,509.2l-3.2-20.5c9.2-1.5,18.3-2.9,27.5-4.3l3.4,20.7C630.1,506.5,620.8,507.9,611.6,509.2z M668.3,501.1
	c-7.9,1.1-15.8,2.2-23.8,3.4l-2.7-20.9c8.3-1.3,16.6-2.5,24.7-3.7L668.3,501.1z M666.1,473.6c-8.3,1.1-16.6,2.3-25.1,3.5l-2-16
	c8.7-1.2,17.3-2.4,25.8-3.5L666.1,473.6z M664.2,450.5c-8.6,1.3-17.3,2.6-26,3.9l-2.1-16.6c9-1.3,18-2.6,26.8-3.9L664.2,450.5z
	 M668,433.2c7.5-1.1,14.9-2.1,22.2-3l2.2,16.2c-7.4,1-14.9,2.1-22.5,3.2L668,433.2z M670.8,456.7c7.7-1,15.2-2,22.6-2.9l2.2,15.9
	c-7.5,1-15.2,2-22.9,3L670.8,456.7z M675.9,500l-2.5-21.1c7.8-1.1,15.5-2.2,23-3.3l2.9,21.2C691.7,497.8,683.9,498.9,675.9,500z
	 M695.2,429.5c8.3-1.1,16.3-2.1,24-3.1l2.6,15.9c-7.7,1-15.6,2.1-23.8,3.2L695.2,429.5z M699.4,453c8.2-1,16.1-2,23.7-2.9l2.6,15.7
	c-7.6,0.9-15.4,1.9-23.5,2.9L699.4,453z M707,495.8l-3.8-21.1c8.1-1.1,15.9-2.1,23.4-3.1l3.5,21.3
	C722.7,493.8,714.9,494.8,707,495.8z M727,425.4c6.8-0.8,13.3-1.6,19.5-2.3l4.5,15.5c-7,0.8-14.3,1.8-21.9,2.7L727,425.4z
	 M730,449.4c8.1-0.9,16-1.8,23.3-2.5l4.4,15.2c-8,0.9-16.7,1.9-25.7,3L730,449.4z M735.4,492.2l-2.7-21.4c9.3-1.2,18.3-2.3,26.6-3.2
	l6.1,21.1C756.2,489.7,746.1,490.9,735.4,492.2z M760.2,446.2c8.3-0.8,15.8-1.4,22.6-1.9l4.7,14.8c-7,0.6-14.8,1.4-23.5,2.3
	L760.2,446.2z M770.7,488.1l-5.3-21.3c8.8-1,16.7-1.7,23.8-2.4l6.7,21.2C788.7,486.3,780,487.2,770.7,488.1z M934.6,472.8
	c-1,10.3-34.4,26.3-52.9,24.6c-11.6-1.1-49.8-31.6-51.1-44.6c-0.9-9,22.5-19,44.9-17.7C897.9,436.3,935.6,462.5,934.6,472.8z
	 M382.5,28.4c2.4,66.9,18.7,239,28.2,305.1c32.9-4.8,85.9-10.5,143.1-15.8c15,15.3,42.1,43.7,53.8,57.1
	c-25.6,1.6-91.3,10-116.5,14.4l5.2,35.5c41.9-12.1,151.7-29.4,194.7-30.5l2.5-19.6c-25.3-12.3-81.6-43.7-107.7-59.7
	c80.2-7,162.9-12.8,207.3-13.9c-2.8-70.5-16.7-252.2-24.9-322.1C685.2-15.1,467.7,12.7,382.5,28.4z M632.8,50.5
	c7.3-0.7,13.7,4.6,14.5,11.8c0.7,7.2-4.6,13.7-11.8,14.5c-7.3,0.7-13.7-4.6-14.5-11.8C620.3,57.7,625.6,51.3,632.8,50.5z
	 M561.1,197.3l-11.9,92l-112.5,10.1c-7-50.5-21.9-185.7-26.1-240c35.5-6.8,127.9-20,163.8-23.5c-9,21.1-38.7,70.4-52.2,87.7
	l50.1-3.3l-5.9,46c35.9,2.4,99.5-38.1,113.1-71.1C680.1,146,617.1,197.8,561.1,197.3z M727.6,256l-19.7-26.4l-15.8,15.5l-20-61.7
	l58.8,23.5L716.6,221l22.2,20.5L727.6,256z M499,102.1c0.8,7.9-5,14.9-12.8,15.7c-7.9,0.8-14.9-5-15.7-12.8
	c-0.8-7.9,5-14.9,12.8-15.7C491.2,88.5,498.2,94.2,499,102.1z"/>
</svg>
